<?xml version="1.0" encoding="utf-8" standalone="no"?>
<!DOCTYPE svg PUBLIC "-//W3C//DTD SVG 1.1//EN"
  "http://www.w3.org/Graphics/SVG/1.1/DTD/svg11.dtd">
<svg xmlns:xlink="http://www.w3.org/1999/xlink" width="460.8pt" height="345.6pt" viewBox="0 0 460.8 345.6" xmlns="http://www.w3.org/2000/svg" version="1.1">
 <metadata>
  <rdf:RDF xmlns:dc="http://purl.org/dc/elements/1.1/" xmlns:cc="http://creativecommons.org/ns#" xmlns:rdf="http://www.w3.org/1999/02/22-rdf-syntax-ns#">
   <cc:Work>
    <dc:type rdf:resource="http://purl.org/dc/dcmitype/StillImage"/>
    <dc:date>2025-08-18T18:01:21.859180</dc:date>
    <dc:format>image/svg+xml</dc:format>
    <dc:creator>
     <cc:Agent>
      <dc:title>Matplotlib v3.10.5, https://matplotlib.org/</dc:title>
     </cc:Agent>
    </dc:creator>
   </cc:Work>
  </rdf:RDF>
 </metadata>
 <defs>
  <style type="text/css">*{stroke-linejoin: round; stroke-linecap: butt}</style>
 </defs>
 <g id="figure_1">
  <g id="patch_1">
   <path d="M 0 345.6 
L 460.8 345.6 
L 460.8 0 
L 0 0 
z
" style="fill: #ffffff"/>
  </g>
  <g id="axes_1">
   <g id="patch_2">
    <path d="M 57.6 307.584 
L 414.72 307.584 
L 414.72 41.472 
L 57.6 41.472 
z
" style="fill: #ffffff"/>
   </g>
   <g id="matplotlib.axis_1">
    <g id="xtick_1">
     <g id="line2d_1">
      <path d="M 57.6 307.584 
L 57.6 41.472 
" clip-path="url(#p055e73a6ba)" style="fill: none; stroke: #cccccc; stroke-width: 0.8; stroke-linecap: round"/>
     </g>
     <g id="text_1">
      <!-- $\mathdefault{2^{0}}$ -->
      <g style="fill: #262626" transform="translate(51.6864 323.90795) scale(0.1056 -0.1056)">
       <defs>
        <path id="DejaVuSans-32" d="M 1228 531 
L 3431 531 
L 3431 0 
L 469 0 
L 469 531 
Q 828 903 1448 1529 
Q 2069 2156 2228 2338 
Q 2531 2678 2651 2914 
Q 2772 3150 2772 3378 
Q 2772 3750 2511 3984 
Q 2250 4219 1831 4219 
Q 1534 4219 1204 4116 
Q 875 4013 500 3803 
L 500 4441 
Q 881 4594 1212 4672 
Q 1544 4750 1819 4750 
Q 2544 4750 2975 4387 
Q 3406 4025 3406 3419 
Q 3406 3131 3298 2873 
Q 3191 2616 2906 2266 
Q 2828 2175 2409 1742 
Q 1991 1309 1228 531 
z
" transform="scale(0.015625)"/>
        <path id="DejaVuSans-30" d="M 2034 4250 
Q 1547 4250 1301 3770 
Q 1056 3291 1056 2328 
Q 1056 1369 1301 889 
Q 1547 409 2034 409 
Q 2525 409 2770 889 
Q 3016 1369 3016 2328 
Q 3016 3291 2770 3770 
Q 2525 4250 2034 4250 
z
M 2034 4750 
Q 2819 4750 3233 4129 
Q 3647 3509 3647 2328 
Q 3647 1150 3233 529 
Q 2819 -91 2034 -91 
Q 1250 -91 836 529 
Q 422 1150 422 2328 
Q 422 3509 836 4129 
Q 1250 4750 2034 4750 
z
" transform="scale(0.015625)"/>
       </defs>
       <use xlink:href="#DejaVuSans-32" transform="translate(0 0.765625)"/>
       <use xlink:href="#DejaVuSans-30" transform="translate(64.580078 39.046875) scale(0.7)"/>
      </g>
     </g>
    </g>
    <g id="xtick_2">
     <g id="line2d_2">
      <path d="M 140.229787 307.584 
L 140.229787 41.472 
" clip-path="url(#p055e73a6ba)" style="fill: none; stroke: #cccccc; stroke-width: 0.8; stroke-linecap: round"/>
     </g>
     <g id="text_2">
      <!-- $\mathdefault{2^{1}}$ -->
      <g style="fill: #262626" transform="translate(134.316187 323.90795) scale(0.1056 -0.1056)">
       <defs>
        <path id="DejaVuSans-31" d="M 794 531 
L 1825 531 
L 1825 4091 
L 703 3866 
L 703 4441 
L 1819 4666 
L 2450 4666 
L 2450 531 
L 3481 531 
L 3481 0 
L 794 0 
L 794 531 
z
" transform="scale(0.015625)"/>
       </defs>
       <use xlink:href="#DejaVuSans-32" transform="translate(0 0.684375)"/>
       <use xlink:href="#DejaVuSans-31" transform="translate(64.580078 38.965625) scale(0.7)"/>
      </g>
     </g>
    </g>
    <g id="xtick_3">
     <g id="line2d_3">
      <path d="M 222.859575 307.584 
L 222.859575 41.472 
" clip-path="url(#p055e73a6ba)" style="fill: none; stroke: #cccccc; stroke-width: 0.8; stroke-linecap: round"/>
     </g>
     <g id="text_3">
      <!-- $\mathdefault{2^{2}}$ -->
      <g style="fill: #262626" transform="translate(216.945975 323.90795) scale(0.1056 -0.1056)">
       <use xlink:href="#DejaVuSans-32" transform="translate(0 0.765625)"/>
       <use xlink:href="#DejaVuSans-32" transform="translate(64.580078 39.046875) scale(0.7)"/>
      </g>
     </g>
    </g>
    <g id="xtick_4">
     <g id="line2d_4">
      <path d="M 305.489362 307.584 
L 305.489362 41.472 
" clip-path="url(#p055e73a6ba)" style="fill: none; stroke: #cccccc; stroke-width: 0.8; stroke-linecap: round"/>
     </g>
     <g id="text_4">
      <!-- $\mathdefault{2^{3}}$ -->
      <g style="fill: #262626" transform="translate(299.575762 323.90795) scale(0.1056 -0.1056)">
       <defs>
        <path id="DejaVuSans-33" d="M 2597 2516 
Q 3050 2419 3304 2112 
Q 3559 1806 3559 1356 
Q 3559 666 3084 287 
Q 2609 -91 1734 -91 
Q 1441 -91 1130 -33 
Q 819 25 488 141 
L 488 750 
Q 750 597 1062 519 
Q 1375 441 1716 441 
Q 2309 441 2620 675 
Q 2931 909 2931 1356 
Q 2931 1769 2642 2001 
Q 2353 2234 1838 2234 
L 1294 2234 
L 1294 2753 
L 1863 2753 
Q 2328 2753 2575 2939 
Q 2822 3125 2822 3475 
Q 2822 3834 2567 4026 
Q 2313 4219 1838 4219 
Q 1578 4219 1281 4162 
Q 984 4106 628 3988 
L 628 4550 
Q 988 4650 1302 4700 
Q 1616 4750 1894 4750 
Q 2613 4750 3031 4423 
Q 3450 4097 3450 3541 
Q 3450 3153 3228 2886 
Q 3006 2619 2597 2516 
z
" transform="scale(0.015625)"/>
       </defs>
       <use xlink:href="#DejaVuSans-32" transform="translate(0 0.765625)"/>
       <use xlink:href="#DejaVuSans-33" transform="translate(64.580078 39.046875) scale(0.7)"/>
      </g>
     </g>
    </g>
    <g id="xtick_5">
     <g id="line2d_5">
      <path d="M 388.11915 307.584 
L 388.11915 41.472 
" clip-path="url(#p055e73a6ba)" style="fill: none; stroke: #cccccc; stroke-width: 0.8; stroke-linecap: round"/>
     </g>
     <g id="text_5">
      <!-- $\mathdefault{2^{4}}$ -->
      <g style="fill: #262626" transform="translate(382.20555 323.90795) scale(0.1056 -0.1056)">
       <defs>
        <path id="DejaVuSans-34" d="M 2419 4116 
L 825 1625 
L 2419 1625 
L 2419 4116 
z
M 2253 4666 
L 3047 4666 
L 3047 1625 
L 3713 1625 
L 3713 1100 
L 3047 1100 
L 3047 0 
L 2419 0 
L 2419 1100 
L 313 1100 
L 313 1709 
L 2253 4666 
z
" transform="scale(0.015625)"/>
       </defs>
       <use xlink:href="#DejaVuSans-32" transform="translate(0 0.684375)"/>
       <use xlink:href="#DejaVuSans-34" transform="translate(64.580078 38.965625) scale(0.7)"/>
      </g>
     </g>
    </g>
    <g id="text_6">
     <!-- Batch Size -->
     <g style="fill: #262626" transform="translate(205.9479 338.8575) scale(0.1152 -0.1152)">
      <defs>
       <path id="DejaVuSans-42" d="M 1259 2228 
L 1259 519 
L 2272 519 
Q 2781 519 3026 730 
Q 3272 941 3272 1375 
Q 3272 1813 3026 2020 
Q 2781 2228 2272 2228 
L 1259 2228 
z
M 1259 4147 
L 1259 2741 
L 2194 2741 
Q 2656 2741 2882 2914 
Q 3109 3088 3109 3444 
Q 3109 3797 2882 3972 
Q 2656 4147 2194 4147 
L 1259 4147 
z
M 628 4666 
L 2241 4666 
Q 2963 4666 3353 4366 
Q 3744 4066 3744 3513 
Q 3744 3084 3544 2831 
Q 3344 2578 2956 2516 
Q 3422 2416 3680 2098 
Q 3938 1781 3938 1306 
Q 3938 681 3513 340 
Q 3088 0 2303 0 
L 628 0 
L 628 4666 
z
" transform="scale(0.015625)"/>
       <path id="DejaVuSans-61" d="M 2194 1759 
Q 1497 1759 1228 1600 
Q 959 1441 959 1056 
Q 959 750 1161 570 
Q 1363 391 1709 391 
Q 2188 391 2477 730 
Q 2766 1069 2766 1631 
L 2766 1759 
L 2194 1759 
z
M 3341 1997 
L 3341 0 
L 2766 0 
L 2766 531 
Q 2569 213 2275 61 
Q 1981 -91 1556 -91 
Q 1019 -91 701 211 
Q 384 513 384 1019 
Q 384 1609 779 1909 
Q 1175 2209 1959 2209 
L 2766 2209 
L 2766 2266 
Q 2766 2663 2505 2880 
Q 2244 3097 1772 3097 
Q 1472 3097 1187 3025 
Q 903 2953 641 2809 
L 641 3341 
Q 956 3463 1253 3523 
Q 1550 3584 1831 3584 
Q 2591 3584 2966 3190 
Q 3341 2797 3341 1997 
z
" transform="scale(0.015625)"/>
       <path id="DejaVuSans-74" d="M 1172 4494 
L 1172 3500 
L 2356 3500 
L 2356 3053 
L 1172 3053 
L 1172 1153 
Q 1172 725 1289 603 
Q 1406 481 1766 481 
L 2356 481 
L 2356 0 
L 1766 0 
Q 1100 0 847 248 
Q 594 497 594 1153 
L 594 3053 
L 172 3053 
L 172 3500 
L 594 3500 
L 594 4494 
L 1172 4494 
z
" transform="scale(0.015625)"/>
       <path id="DejaVuSans-63" d="M 3122 3366 
L 3122 2828 
Q 2878 2963 2633 3030 
Q 2388 3097 2138 3097 
Q 1578 3097 1268 2742 
Q 959 2388 959 1747 
Q 959 1106 1268 751 
Q 1578 397 2138 397 
Q 2388 397 2633 464 
Q 2878 531 3122 666 
L 3122 134 
Q 2881 22 2623 -34 
Q 2366 -91 2075 -91 
Q 1284 -91 818 406 
Q 353 903 353 1747 
Q 353 2603 823 3093 
Q 1294 3584 2113 3584 
Q 2378 3584 2631 3529 
Q 2884 3475 3122 3366 
z
" transform="scale(0.015625)"/>
       <path id="DejaVuSans-68" d="M 3513 2113 
L 3513 0 
L 2938 0 
L 2938 2094 
Q 2938 2591 2744 2837 
Q 2550 3084 2163 3084 
Q 1697 3084 1428 2787 
Q 1159 2491 1159 1978 
L 1159 0 
L 581 0 
L 581 4863 
L 1159 4863 
L 1159 2956 
Q 1366 3272 1645 3428 
Q 1925 3584 2291 3584 
Q 2894 3584 3203 3211 
Q 3513 2838 3513 2113 
z
" transform="scale(0.015625)"/>
       <path id="DejaVuSans-20" transform="scale(0.015625)"/>
       <path id="DejaVuSans-53" d="M 3425 4513 
L 3425 3897 
Q 3066 4069 2747 4153 
Q 2428 4238 2131 4238 
Q 1616 4238 1336 4038 
Q 1056 3838 1056 3469 
Q 1056 3159 1242 3001 
Q 1428 2844 1947 2747 
L 2328 2669 
Q 3034 2534 3370 2195 
Q 3706 1856 3706 1288 
Q 3706 609 3251 259 
Q 2797 -91 1919 -91 
Q 1588 -91 1214 -16 
Q 841 59 441 206 
L 441 856 
Q 825 641 1194 531 
Q 1563 422 1919 422 
Q 2459 422 2753 634 
Q 3047 847 3047 1241 
Q 3047 1584 2836 1778 
Q 2625 1972 2144 2069 
L 1759 2144 
Q 1053 2284 737 2584 
Q 422 2884 422 3419 
Q 422 4038 858 4394 
Q 1294 4750 2059 4750 
Q 2388 4750 2728 4690 
Q 3069 4631 3425 4513 
z
" transform="scale(0.015625)"/>
       <path id="DejaVuSans-69" d="M 603 3500 
L 1178 3500 
L 1178 0 
L 603 0 
L 603 3500 
z
M 603 4863 
L 1178 4863 
L 1178 4134 
L 603 4134 
L 603 4863 
z
" transform="scale(0.015625)"/>
       <path id="DejaVuSans-7a" d="M 353 3500 
L 3084 3500 
L 3084 2975 
L 922 459 
L 3084 459 
L 3084 0 
L 275 0 
L 275 525 
L 2438 3041 
L 353 3041 
L 353 3500 
z
" transform="scale(0.015625)"/>
       <path id="DejaVuSans-65" d="M 3597 1894 
L 3597 1613 
L 953 1613 
Q 991 1019 1311 708 
Q 1631 397 2203 397 
Q 2534 397 2845 478 
Q 3156 559 3463 722 
L 3463 178 
Q 3153 47 2828 -22 
Q 2503 -91 2169 -91 
Q 1331 -91 842 396 
Q 353 884 353 1716 
Q 353 2575 817 3079 
Q 1281 3584 2069 3584 
Q 2775 3584 3186 3129 
Q 3597 2675 3597 1894 
z
M 3022 2063 
Q 3016 2534 2758 2815 
Q 2500 3097 2075 3097 
Q 1594 3097 1305 2825 
Q 1016 2553 972 2059 
L 3022 2063 
z
" transform="scale(0.015625)"/>
      </defs>
      <use xlink:href="#DejaVuSans-42"/>
      <use xlink:href="#DejaVuSans-61" transform="translate(68.603516 0)"/>
      <use xlink:href="#DejaVuSans-74" transform="translate(129.882812 0)"/>
      <use xlink:href="#DejaVuSans-63" transform="translate(169.091797 0)"/>
      <use xlink:href="#DejaVuSans-68" transform="translate(224.072266 0)"/>
      <use xlink:href="#DejaVuSans-20" transform="translate(287.451172 0)"/>
      <use xlink:href="#DejaVuSans-53" transform="translate(319.238281 0)"/>
      <use xlink:href="#DejaVuSans-69" transform="translate(382.714844 0)"/>
      <use xlink:href="#DejaVuSans-7a" transform="translate(410.498047 0)"/>
      <use xlink:href="#DejaVuSans-65" transform="translate(462.988281 0)"/>
     </g>
    </g>
   </g>
   <g id="matplotlib.axis_2">
    <g id="ytick_1">
     <g id="line2d_6">
      <path d="M 57.6 295.542957 
L 414.72 295.542957 
" clip-path="url(#p055e73a6ba)" style="fill: none; stroke: #cccccc; stroke-width: 0.8; stroke-linecap: round"/>
     </g>
     <g id="text_7">
      <!-- 0.000 -->
      <g style="fill: #262626" transform="translate(19.0687 299.554932) scale(0.1056 -0.1056)">
       <defs>
        <path id="DejaVuSans-2e" d="M 684 794 
L 1344 794 
L 1344 0 
L 684 0 
L 684 794 
z
" transform="scale(0.015625)"/>
       </defs>
       <use xlink:href="#DejaVuSans-30"/>
       <use xlink:href="#DejaVuSans-2e" transform="translate(63.623047 0)"/>
       <use xlink:href="#DejaVuSans-30" transform="translate(95.410156 0)"/>
       <use xlink:href="#DejaVuSans-30" transform="translate(159.033203 0)"/>
       <use xlink:href="#DejaVuSans-30" transform="translate(222.65625 0)"/>
      </g>
     </g>
    </g>
    <g id="ytick_2">
     <g id="line2d_7">
      <path d="M 57.6 262.277677 
L 414.72 262.277677 
" clip-path="url(#p055e73a6ba)" style="fill: none; stroke: #cccccc; stroke-width: 0.8; stroke-linecap: round"/>
     </g>
     <g id="text_8">
      <!-- 0.025 -->
      <g style="fill: #262626" transform="translate(19.0687 266.289652) scale(0.1056 -0.1056)">
       <defs>
        <path id="DejaVuSans-35" d="M 691 4666 
L 3169 4666 
L 3169 4134 
L 1269 4134 
L 1269 2991 
Q 1406 3038 1543 3061 
Q 1681 3084 1819 3084 
Q 2600 3084 3056 2656 
Q 3513 2228 3513 1497 
Q 3513 744 3044 326 
Q 2575 -91 1722 -91 
Q 1428 -91 1123 -41 
Q 819 9 494 109 
L 494 744 
Q 775 591 1075 516 
Q 1375 441 1709 441 
Q 2250 441 2565 725 
Q 2881 1009 2881 1497 
Q 2881 1984 2565 2268 
Q 2250 2553 1709 2553 
Q 1456 2553 1204 2497 
Q 953 2441 691 2322 
L 691 4666 
z
" transform="scale(0.015625)"/>
       </defs>
       <use xlink:href="#DejaVuSans-30"/>
       <use xlink:href="#DejaVuSans-2e" transform="translate(63.623047 0)"/>
       <use xlink:href="#DejaVuSans-30" transform="translate(95.410156 0)"/>
       <use xlink:href="#DejaVuSans-32" transform="translate(159.033203 0)"/>
       <use xlink:href="#DejaVuSans-35" transform="translate(222.65625 0)"/>
      </g>
     </g>
    </g>
    <g id="ytick_3">
     <g id="line2d_8">
      <path d="M 57.6 229.012396 
L 414.72 229.012396 
" clip-path="url(#p055e73a6ba)" style="fill: none; stroke: #cccccc; stroke-width: 0.8; stroke-linecap: round"/>
     </g>
     <g id="text_9">
      <!-- 0.050 -->
      <g style="fill: #262626" transform="translate(19.0687 233.024371) scale(0.1056 -0.1056)">
       <use xlink:href="#DejaVuSans-30"/>
       <use xlink:href="#DejaVuSans-2e" transform="translate(63.623047 0)"/>
       <use xlink:href="#DejaVuSans-30" transform="translate(95.410156 0)"/>
       <use xlink:href="#DejaVuSans-35" transform="translate(159.033203 0)"/>
       <use xlink:href="#DejaVuSans-30" transform="translate(222.65625 0)"/>
      </g>
     </g>
    </g>
    <g id="ytick_4">
     <g id="line2d_9">
      <path d="M 57.6 195.747115 
L 414.72 195.747115 
" clip-path="url(#p055e73a6ba)" style="fill: none; stroke: #cccccc; stroke-width: 0.8; stroke-linecap: round"/>
     </g>
     <g id="text_10">
      <!-- 0.075 -->
      <g style="fill: #262626" transform="translate(19.0687 199.75909) scale(0.1056 -0.1056)">
       <defs>
        <path id="DejaVuSans-37" d="M 525 4666 
L 3525 4666 
L 3525 4397 
L 1831 0 
L 1172 0 
L 2766 4134 
L 525 4134 
L 525 4666 
z
" transform="scale(0.015625)"/>
       </defs>
       <use xlink:href="#DejaVuSans-30"/>
       <use xlink:href="#DejaVuSans-2e" transform="translate(63.623047 0)"/>
       <use xlink:href="#DejaVuSans-30" transform="translate(95.410156 0)"/>
       <use xlink:href="#DejaVuSans-37" transform="translate(159.033203 0)"/>
       <use xlink:href="#DejaVuSans-35" transform="translate(222.65625 0)"/>
      </g>
     </g>
    </g>
    <g id="ytick_5">
     <g id="line2d_10">
      <path d="M 57.6 162.481835 
L 414.72 162.481835 
" clip-path="url(#p055e73a6ba)" style="fill: none; stroke: #cccccc; stroke-width: 0.8; stroke-linecap: round"/>
     </g>
     <g id="text_11">
      <!-- 0.100 -->
      <g style="fill: #262626" transform="translate(19.0687 166.49381) scale(0.1056 -0.1056)">
       <use xlink:href="#DejaVuSans-30"/>
       <use xlink:href="#DejaVuSans-2e" transform="translate(63.623047 0)"/>
       <use xlink:href="#DejaVuSans-31" transform="translate(95.410156 0)"/>
       <use xlink:href="#DejaVuSans-30" transform="translate(159.033203 0)"/>
       <use xlink:href="#DejaVuSans-30" transform="translate(222.65625 0)"/>
      </g>
     </g>
    </g>
    <g id="ytick_6">
     <g id="line2d_11">
      <path d="M 57.6 129.216554 
L 414.72 129.216554 
" clip-path="url(#p055e73a6ba)" style="fill: none; stroke: #cccccc; stroke-width: 0.8; stroke-linecap: round"/>
     </g>
     <g id="text_12">
      <!-- 0.125 -->
      <g style="fill: #262626" transform="translate(19.0687 133.228529) scale(0.1056 -0.1056)">
       <use xlink:href="#DejaVuSans-30"/>
       <use xlink:href="#DejaVuSans-2e" transform="translate(63.623047 0)"/>
       <use xlink:href="#DejaVuSans-31" transform="translate(95.410156 0)"/>
       <use xlink:href="#DejaVuSans-32" transform="translate(159.033203 0)"/>
       <use xlink:href="#DejaVuSans-35" transform="translate(222.65625 0)"/>
      </g>
     </g>
    </g>
    <g id="ytick_7">
     <g id="line2d_12">
      <path d="M 57.6 95.951274 
L 414.72 95.951274 
" clip-path="url(#p055e73a6ba)" style="fill: none; stroke: #cccccc; stroke-width: 0.8; stroke-linecap: round"/>
     </g>
     <g id="text_13">
      <!-- 0.150 -->
      <g style="fill: #262626" transform="translate(19.0687 99.963249) scale(0.1056 -0.1056)">
       <use xlink:href="#DejaVuSans-30"/>
       <use xlink:href="#DejaVuSans-2e" transform="translate(63.623047 0)"/>
       <use xlink:href="#DejaVuSans-31" transform="translate(95.410156 0)"/>
       <use xlink:href="#DejaVuSans-35" transform="translate(159.033203 0)"/>
       <use xlink:href="#DejaVuSans-30" transform="translate(222.65625 0)"/>
      </g>
     </g>
    </g>
    <g id="ytick_8">
     <g id="line2d_13">
      <path d="M 57.6 62.685993 
L 414.72 62.685993 
" clip-path="url(#p055e73a6ba)" style="fill: none; stroke: #cccccc; stroke-width: 0.8; stroke-linecap: round"/>
     </g>
     <g id="text_14">
      <!-- 0.175 -->
      <g style="fill: #262626" transform="translate(19.0687 66.697968) scale(0.1056 -0.1056)">
       <use xlink:href="#DejaVuSans-30"/>
       <use xlink:href="#DejaVuSans-2e" transform="translate(63.623047 0)"/>
       <use xlink:href="#DejaVuSans-31" transform="translate(95.410156 0)"/>
       <use xlink:href="#DejaVuSans-37" transform="translate(159.033203 0)"/>
       <use xlink:href="#DejaVuSans-35" transform="translate(222.65625 0)"/>
      </g>
     </g>
    </g>
    <g id="text_15">
     <!-- Execution Time (s) -->
     <g style="fill: #262626" transform="translate(12.6729 228.0411) rotate(-90) scale(0.1152 -0.1152)">
      <defs>
       <path id="DejaVuSans-45" d="M 628 4666 
L 3578 4666 
L 3578 4134 
L 1259 4134 
L 1259 2753 
L 3481 2753 
L 3481 2222 
L 1259 2222 
L 1259 531 
L 3634 531 
L 3634 0 
L 628 0 
L 628 4666 
z
" transform="scale(0.015625)"/>
       <path id="DejaVuSans-78" d="M 3513 3500 
L 2247 1797 
L 3578 0 
L 2900 0 
L 1881 1375 
L 863 0 
L 184 0 
L 1544 1831 
L 300 3500 
L 978 3500 
L 1906 2253 
L 2834 3500 
L 3513 3500 
z
" transform="scale(0.015625)"/>
       <path id="DejaVuSans-75" d="M 544 1381 
L 544 3500 
L 1119 3500 
L 1119 1403 
Q 1119 906 1312 657 
Q 1506 409 1894 409 
Q 2359 409 2629 706 
Q 2900 1003 2900 1516 
L 2900 3500 
L 3475 3500 
L 3475 0 
L 2900 0 
L 2900 538 
Q 2691 219 2414 64 
Q 2138 -91 1772 -91 
Q 1169 -91 856 284 
Q 544 659 544 1381 
z
M 1991 3584 
L 1991 3584 
z
" transform="scale(0.015625)"/>
       <path id="DejaVuSans-6f" d="M 1959 3097 
Q 1497 3097 1228 2736 
Q 959 2375 959 1747 
Q 959 1119 1226 758 
Q 1494 397 1959 397 
Q 2419 397 2687 759 
Q 2956 1122 2956 1747 
Q 2956 2369 2687 2733 
Q 2419 3097 1959 3097 
z
M 1959 3584 
Q 2709 3584 3137 3096 
Q 3566 2609 3566 1747 
Q 3566 888 3137 398 
Q 2709 -91 1959 -91 
Q 1206 -91 779 398 
Q 353 888 353 1747 
Q 353 2609 779 3096 
Q 1206 3584 1959 3584 
z
" transform="scale(0.015625)"/>
       <path id="DejaVuSans-6e" d="M 3513 2113 
L 3513 0 
L 2938 0 
L 2938 2094 
Q 2938 2591 2744 2837 
Q 2550 3084 2163 3084 
Q 1697 3084 1428 2787 
Q 1159 2491 1159 1978 
L 1159 0 
L 581 0 
L 581 3500 
L 1159 3500 
L 1159 2956 
Q 1366 3272 1645 3428 
Q 1925 3584 2291 3584 
Q 2894 3584 3203 3211 
Q 3513 2838 3513 2113 
z
" transform="scale(0.015625)"/>
       <path id="DejaVuSans-54" d="M -19 4666 
L 3928 4666 
L 3928 4134 
L 2272 4134 
L 2272 0 
L 1638 0 
L 1638 4134 
L -19 4134 
L -19 4666 
z
" transform="scale(0.015625)"/>
       <path id="DejaVuSans-6d" d="M 3328 2828 
Q 3544 3216 3844 3400 
Q 4144 3584 4550 3584 
Q 5097 3584 5394 3201 
Q 5691 2819 5691 2113 
L 5691 0 
L 5113 0 
L 5113 2094 
Q 5113 2597 4934 2840 
Q 4756 3084 4391 3084 
Q 3944 3084 3684 2787 
Q 3425 2491 3425 1978 
L 3425 0 
L 2847 0 
L 2847 2094 
Q 2847 2600 2669 2842 
Q 2491 3084 2119 3084 
Q 1678 3084 1418 2786 
Q 1159 2488 1159 1978 
L 1159 0 
L 581 0 
L 581 3500 
L 1159 3500 
L 1159 2956 
Q 1356 3278 1631 3431 
Q 1906 3584 2284 3584 
Q 2666 3584 2933 3390 
Q 3200 3197 3328 2828 
z
" transform="scale(0.015625)"/>
       <path id="DejaVuSans-28" d="M 1984 4856 
Q 1566 4138 1362 3434 
Q 1159 2731 1159 2009 
Q 1159 1288 1364 580 
Q 1569 -128 1984 -844 
L 1484 -844 
Q 1016 -109 783 600 
Q 550 1309 550 2009 
Q 550 2706 781 3412 
Q 1013 4119 1484 4856 
L 1984 4856 
z
" transform="scale(0.015625)"/>
       <path id="DejaVuSans-73" d="M 2834 3397 
L 2834 2853 
Q 2591 2978 2328 3040 
Q 2066 3103 1784 3103 
Q 1356 3103 1142 2972 
Q 928 2841 928 2578 
Q 928 2378 1081 2264 
Q 1234 2150 1697 2047 
L 1894 2003 
Q 2506 1872 2764 1633 
Q 3022 1394 3022 966 
Q 3022 478 2636 193 
Q 2250 -91 1575 -91 
Q 1294 -91 989 -36 
Q 684 19 347 128 
L 347 722 
Q 666 556 975 473 
Q 1284 391 1588 391 
Q 1994 391 2212 530 
Q 2431 669 2431 922 
Q 2431 1156 2273 1281 
Q 2116 1406 1581 1522 
L 1381 1569 
Q 847 1681 609 1914 
Q 372 2147 372 2553 
Q 372 3047 722 3315 
Q 1072 3584 1716 3584 
Q 2034 3584 2315 3537 
Q 2597 3491 2834 3397 
z
" transform="scale(0.015625)"/>
       <path id="DejaVuSans-29" d="M 513 4856 
L 1013 4856 
Q 1481 4119 1714 3412 
Q 1947 2706 1947 2009 
Q 1947 1309 1714 600 
Q 1481 -109 1013 -844 
L 513 -844 
Q 928 -128 1133 580 
Q 1338 1288 1338 2009 
Q 1338 2731 1133 3434 
Q 928 4138 513 4856 
z
" transform="scale(0.015625)"/>
      </defs>
      <use xlink:href="#DejaVuSans-45"/>
      <use xlink:href="#DejaVuSans-78" transform="translate(63.183594 0)"/>
      <use xlink:href="#DejaVuSans-65" transform="translate(119.238281 0)"/>
      <use xlink:href="#DejaVuSans-63" transform="translate(180.761719 0)"/>
      <use xlink:href="#DejaVuSans-75" transform="translate(235.742188 0)"/>
      <use xlink:href="#DejaVuSans-74" transform="translate(299.121094 0)"/>
      <use xlink:href="#DejaVuSans-69" transform="translate(338.330078 0)"/>
      <use xlink:href="#DejaVuSans-6f" transform="translate(366.113281 0)"/>
      <use xlink:href="#DejaVuSans-6e" transform="translate(427.294922 0)"/>
      <use xlink:href="#DejaVuSans-20" transform="translate(490.673828 0)"/>
      <use xlink:href="#DejaVuSans-54" transform="translate(522.460938 0)"/>
      <use xlink:href="#DejaVuSans-69" transform="translate(580.419922 0)"/>
      <use xlink:href="#DejaVuSans-6d" transform="translate(608.203125 0)"/>
      <use xlink:href="#DejaVuSans-65" transform="translate(705.615234 0)"/>
      <use xlink:href="#DejaVuSans-20" transform="translate(767.138672 0)"/>
      <use xlink:href="#DejaVuSans-28" transform="translate(798.925781 0)"/>
      <use xlink:href="#DejaVuSans-73" transform="translate(837.939453 0)"/>
      <use xlink:href="#DejaVuSans-29" transform="translate(890.039062 0)"/>
     </g>
    </g>
   </g>
   <g id="FillBetweenPolyCollection_1">
    <defs>
     <path id="m640a8408a6" d="M 57.6 -54.973849 
L 57.6 -50.351896 
L 140.229787 -51.172317 
L 188.565115 -52.51625 
L 222.859575 -53.843075 
L 249.460425 -55.166855 
L 271.194902 -55.224547 
L 289.571141 -56.428804 
L 305.489362 -57.025122 
L 319.530229 -58.589689 
L 332.090213 -59.513567 
L 343.452099 -61.658152 
L 353.82469 -61.89088 
L 363.366548 -63.029692 
L 372.200928 -61.610975 
L 380.42554 -63.849069 
L 388.11915 -64.258794 
L 395.346186 -66.640453 
L 402.160017 -68.338897 
L 408.605348 -69.625568 
L 414.72 -69.803855 
L 414.72 -78.282998 
L 414.72 -78.282998 
L 408.605348 -76.078414 
L 402.160017 -75.257452 
L 395.346186 -71.746903 
L 388.11915 -69.575245 
L 380.42554 -68.537963 
L 372.200928 -67.277888 
L 363.366548 -64.658726 
L 353.82469 -65.028288 
L 343.452099 -68.426588 
L 332.090213 -62.160314 
L 319.530229 -62.61239 
L 305.489362 -60.474484 
L 289.571141 -58.025148 
L 271.194902 -57.622889 
L 249.460425 -56.546375 
L 222.859575 -55.611389 
L 188.565115 -53.735843 
L 140.229787 -54.337048 
L 57.6 -54.973849 
z
" style="stroke: #4c72b0; stroke-opacity: 0.2; stroke-width: 0.8"/>
    </defs>
    <g clip-path="url(#p055e73a6ba)">
     <use xlink:href="#m640a8408a6" x="0" y="345.6" style="fill: #4c72b0; fill-opacity: 0.2; stroke: #4c72b0; stroke-opacity: 0.2; stroke-width: 0.8"/>
    </g>
   </g>
   <g id="FillBetweenPolyCollection_2">
    <defs>
     <path id="m77b771cb8d" d="M 57.6 -51.830831 
L 57.6 -50.710413 
L 140.229787 -51.953935 
L 188.565115 -52.323011 
L 222.859575 -52.771655 
L 249.460425 -54.594699 
L 271.194902 -55.948352 
L 289.571141 -55.411804 
L 305.489362 -56.96402 
L 319.530229 -57.560319 
L 332.090213 -60.800132 
L 343.452099 -60.05177 
L 353.82469 -59.849983 
L 363.366548 -63.910749 
L 372.200928 -63.007871 
L 380.42554 -65.472298 
L 388.11915 -64.678979 
L 395.346186 -68.083506 
L 402.160017 -69.333751 
L 408.605348 -68.522492 
L 414.72 -71.325122 
L 414.72 -74.283052 
L 414.72 -74.283052 
L 408.605348 -73.230298 
L 402.160017 -75.411904 
L 395.346186 -73.629693 
L 388.11915 -71.918114 
L 380.42554 -68.884175 
L 372.200928 -69.218256 
L 363.366548 -68.145716 
L 353.82469 -67.143547 
L 343.452099 -68.313389 
L 332.090213 -65.645203 
L 319.530229 -62.338401 
L 305.489362 -60.239662 
L 289.571141 -60.29259 
L 271.194902 -58.897584 
L 249.460425 -57.551124 
L 222.859575 -56.03056 
L 188.565115 -55.47253 
L 140.229787 -53.363815 
L 57.6 -51.830831 
z
" style="stroke: #4c72b0; stroke-opacity: 0.2; stroke-width: 0.8"/>
    </defs>
    <g clip-path="url(#p055e73a6ba)">
     <use xlink:href="#m77b771cb8d" x="0" y="345.6" style="fill: #4c72b0; fill-opacity: 0.2; stroke: #4c72b0; stroke-opacity: 0.2; stroke-width: 0.8"/>
    </g>
   </g>
   <g id="FillBetweenPolyCollection_3">
    <defs>
     <path id="mc55e34caaa" d="M 57.6 -54.807928 
L 57.6 -50.112 
L 140.229787 -50.922061 
L 188.565115 -52.242549 
L 222.859575 -53.695048 
L 249.460425 -54.860443 
L 271.194902 -54.887339 
L 289.571141 -56.339298 
L 305.489362 -56.78182 
L 319.530229 -58.322622 
L 332.090213 -58.991686 
L 343.452099 -61.683688 
L 353.82469 -61.273583 
L 363.366548 -62.352737 
L 372.200928 -60.995615 
L 380.42554 -63.546888 
L 388.11915 -63.75364 
L 395.346186 -66.338181 
L 402.160017 -67.45617 
L 408.605348 -69.101417 
L 414.72 -69.123886 
L 414.72 -76.274019 
L 414.72 -76.274019 
L 408.605348 -74.496582 
L 402.160017 -73.99727 
L 395.346186 -71.205056 
L 388.11915 -68.954949 
L 380.42554 -67.773449 
L 372.200928 -66.620471 
L 363.366548 -64.356543 
L 353.82469 -64.51874 
L 343.452099 -68.152715 
L 332.090213 -61.697095 
L 319.530229 -62.170357 
L 305.489362 -60.325801 
L 289.571141 -57.621151 
L 271.194902 -57.439312 
L 249.460425 -56.634144 
L 222.859575 -55.53519 
L 188.565115 -53.456653 
L 140.229787 -54.315998 
L 57.6 -54.807928 
z
" style="stroke: #dd8452; stroke-opacity: 0.2; stroke-width: 0.8"/>
    </defs>
    <g clip-path="url(#p055e73a6ba)">
     <use xlink:href="#mc55e34caaa" x="0" y="345.6" style="fill: #dd8452; fill-opacity: 0.2; stroke: #dd8452; stroke-opacity: 0.2; stroke-width: 0.8"/>
    </g>
   </g>
   <g id="FillBetweenPolyCollection_4">
    <defs>
     <path id="m81d8f6b07c" d="M 57.6 -51.250461 
L 57.6 -50.673811 
L 140.229787 -51.684499 
L 188.565115 -52.115702 
L 222.859575 -52.563793 
L 249.460425 -54.344886 
L 271.194902 -55.769235 
L 289.571141 -55.164519 
L 305.489362 -56.50729 
L 319.530229 -57.268705 
L 332.090213 -60.708225 
L 343.452099 -59.864091 
L 353.82469 -59.890517 
L 363.366548 -63.417764 
L 372.200928 -62.350231 
L 380.42554 -65.070589 
L 388.11915 -64.11183 
L 395.346186 -67.417864 
L 402.160017 -68.577203 
L 408.605348 -67.866485 
L 414.72 -70.388741 
L 414.72 -73.590584 
L 414.72 -73.590584 
L 408.605348 -72.016859 
L 402.160017 -74.821695 
L 395.346186 -73.349698 
L 388.11915 -71.236977 
L 380.42554 -68.386311 
L 372.200928 -68.76745 
L 363.366548 -67.91044 
L 353.82469 -66.079208 
L 343.452099 -66.600025 
L 332.090213 -64.856445 
L 319.530229 -62.125853 
L 305.489362 -60.151243 
L 289.571141 -59.757429 
L 271.194902 -58.701848 
L 249.460425 -57.372152 
L 222.859575 -55.445189 
L 188.565115 -54.937491 
L 140.229787 -53.154342 
L 57.6 -51.250461 
z
" style="stroke: #dd8452; stroke-opacity: 0.2; stroke-width: 0.8"/>
    </defs>
    <g clip-path="url(#p055e73a6ba)">
     <use xlink:href="#m81d8f6b07c" x="0" y="345.6" style="fill: #dd8452; fill-opacity: 0.2; stroke: #dd8452; stroke-opacity: 0.2; stroke-width: 0.8"/>
    </g>
   </g>
   <g id="FillBetweenPolyCollection_5">
    <defs>
     <path id="mab05a0c4fb" d="M 57.6 -57.577401 
L 57.6 -56.38216 
L 140.229787 -62.548332 
L 188.565115 -69.187096 
L 222.859575 -75.853829 
L 249.460425 -82.051369 
L 271.194902 -87.959381 
L 289.571141 -95.403487 
L 305.489362 -102.19736 
L 319.530229 -108.936531 
L 332.090213 -113.651139 
L 343.452099 -120.528621 
L 353.82469 -126.168504 
L 363.366548 -132.949232 
L 372.200928 -138.846939 
L 380.42554 -146.150632 
L 388.11915 -152.324609 
L 395.346186 -160.389482 
L 402.160017 -167.055991 
L 408.605348 -174.145731 
L 414.72 -180.836238 
L 414.72 -183.894713 
L 414.72 -183.894713 
L 408.605348 -179.412577 
L 402.160017 -170.169534 
L 395.346186 -165.962875 
L 388.11915 -158.374372 
L 380.42554 -148.653361 
L 372.200928 -142.563713 
L 363.366548 -137.106678 
L 353.82469 -130.898867 
L 343.452099 -124.937701 
L 332.090213 -118.410549 
L 319.530229 -110.245367 
L 305.489362 -104.234819 
L 289.571141 -98.446857 
L 271.194902 -91.446026 
L 249.460425 -84.621195 
L 222.859575 -77.889964 
L 188.565115 -70.929358 
L 140.229787 -64.960907 
L 57.6 -57.577401 
z
" style="stroke: #55a868; stroke-opacity: 0.2; stroke-width: 0.8"/>
    </defs>
    <g clip-path="url(#p055e73a6ba)">
     <use xlink:href="#mab05a0c4fb" x="0" y="345.6" style="fill: #55a868; fill-opacity: 0.2; stroke: #55a868; stroke-opacity: 0.2; stroke-width: 0.8"/>
    </g>
   </g>
   <g id="FillBetweenPolyCollection_6">
    <defs>
     <path id="m63dfa9a279" d="M 57.6 -86.029871 
L 57.6 -52.580189 
L 140.229787 -72.618522 
L 188.565115 -84.05717 
L 222.859575 -95.100279 
L 249.460425 -106.917624 
L 271.194902 -117.515072 
L 289.571141 -128.446726 
L 305.489362 -141.406207 
L 319.530229 -151.804016 
L 332.090213 -165.699522 
L 343.452099 -178.198621 
L 353.82469 -185.062281 
L 363.366548 -199.106458 
L 372.200928 -208.509172 
L 380.42554 -219.7411 
L 388.11915 -230.403586 
L 395.346186 -245.380179 
L 402.160017 -255.506878 
L 408.605348 -266.495393 
L 414.72 -279.870572 
L 414.72 -292.032 
L 414.72 -292.032 
L 408.605348 -277.803788 
L 402.160017 -265.285907 
L 395.346186 -255.40641 
L 388.11915 -243.93742 
L 380.42554 -235.511809 
L 372.200928 -223.509916 
L 363.366548 -209.829943 
L 353.82469 -195.342097 
L 343.452099 -196.84677 
L 332.090213 -173.065009 
L 319.530229 -159.709263 
L 305.489362 -145.435889 
L 289.571141 -134.840373 
L 271.194902 -123.642971 
L 249.460425 -109.38016 
L 222.859575 -97.912544 
L 188.565115 -86.315457 
L 140.229787 -74.799329 
L 57.6 -86.029871 
z
" style="stroke: #55a868; stroke-opacity: 0.2; stroke-width: 0.8"/>
    </defs>
    <g clip-path="url(#p055e73a6ba)">
     <use xlink:href="#m63dfa9a279" x="0" y="345.6" style="fill: #55a868; fill-opacity: 0.2; stroke: #55a868; stroke-opacity: 0.2; stroke-width: 0.8"/>
    </g>
   </g>
   <g id="line2d_14">
    <path d="M 57.6 292.937128 
L 140.229787 292.845318 
L 188.565115 292.473954 
L 222.859575 290.872768 
L 249.460425 289.743385 
L 271.194902 289.176282 
L 289.571141 288.373024 
L 305.489362 286.850197 
L 319.530229 284.998961 
L 332.090213 284.763059 
L 343.452099 280.55763 
L 353.82469 282.140416 
L 363.366548 281.755791 
L 372.200928 281.155568 
L 380.42554 279.406484 
L 388.11915 278.682981 
L 395.346186 276.406322 
L 402.160017 273.801825 
L 408.605348 272.748009 
L 414.72 271.556574 
" clip-path="url(#p055e73a6ba)" style="fill: none; stroke: #4c72b0; stroke-width: 1.2; stroke-linecap: round"/>
   </g>
   <g id="line2d_15">
    <path d="M 57.6 294.329378 
L 140.229787 292.941125 
L 188.565115 291.70223 
L 222.859575 291.198893 
L 249.460425 289.527089 
L 271.194902 288.177032 
L 289.571141 287.747803 
L 305.489362 286.998159 
L 319.530229 285.65064 
L 332.090213 282.377333 
L 343.452099 281.41742 
L 353.82469 282.103235 
L 363.366548 279.571767 
L 372.200928 279.486937 
L 380.42554 278.421763 
L 388.11915 277.301454 
L 395.346186 274.743401 
L 402.160017 273.227172 
L 408.605348 274.723605 
L 414.72 272.795913 
" clip-path="url(#p055e73a6ba)" style="fill: none; stroke-dasharray: 4.8,1.8; stroke-dashoffset: 0; stroke: #4c72b0; stroke-width: 1.2"/>
   </g>
   <g id="line2d_16">
    <path d="M 57.6 293.140036 
L 140.229787 292.980971 
L 188.565115 292.750399 
L 222.859575 290.984881 
L 249.460425 289.852706 
L 271.194902 289.436675 
L 289.571141 288.619775 
L 305.489362 287.046189 
L 319.530229 285.353511 
L 332.090213 285.25561 
L 343.452099 280.681799 
L 353.82469 282.703838 
L 363.366548 282.24536 
L 372.200928 281.791957 
L 380.42554 279.939832 
L 388.11915 279.245706 
L 395.346186 276.828382 
L 402.160017 274.87328 
L 408.605348 273.801 
L 414.72 272.901047 
" clip-path="url(#p055e73a6ba)" style="fill: none; stroke: #dd8452; stroke-width: 1.2; stroke-linecap: round"/>
   </g>
   <g id="line2d_17">
    <path d="M 57.6 294.637864 
L 140.229787 293.18058 
L 188.565115 292.073403 
L 222.859575 291.595509 
L 249.460425 289.741481 
L 271.194902 288.364459 
L 289.571141 288.139026 
L 305.489362 287.270734 
L 319.530229 285.902721 
L 332.090213 282.817665 
L 343.452099 282.367942 
L 353.82469 282.615137 
L 363.366548 279.935898 
L 372.200928 280.041159 
L 380.42554 278.87155 
L 388.11915 277.925596 
L 395.346186 275.216219 
L 402.160017 273.900551 
L 408.605348 275.658328 
L 414.72 273.610338 
" clip-path="url(#p055e73a6ba)" style="fill: none; stroke-dasharray: 4.8,1.8; stroke-dashoffset: 0; stroke: #dd8452; stroke-width: 1.2"/>
   </g>
   <g id="line2d_18">
    <path d="M 57.6 288.62022 
L 140.229787 281.84538 
L 188.565115 275.541773 
L 222.859575 268.728104 
L 249.460425 262.263718 
L 271.194902 255.897297 
L 289.571141 248.674828 
L 305.489362 242.383911 
L 319.530229 236.009051 
L 332.090213 229.569156 
L 343.452099 222.866839 
L 353.82469 217.066315 
L 363.366548 210.572045 
L 372.200928 204.894674 
L 380.42554 198.198004 
L 388.11915 190.250509 
L 395.346186 182.423821 
L 402.160017 176.987238 
L 408.605348 168.820846 
L 414.72 163.234524 
" clip-path="url(#p055e73a6ba)" style="fill: none; stroke: #55a868; stroke-width: 1.2; stroke-linecap: round"/>
   </g>
   <g id="line2d_19">
    <path d="M 57.6 276.29497 
L 140.229787 271.891074 
L 188.565115 260.413687 
L 222.859575 249.093588 
L 249.460425 237.451108 
L 271.194902 225.020978 
L 289.571141 213.956451 
L 305.489362 202.178952 
L 319.530229 189.84336 
L 332.090213 176.217734 
L 343.452099 158.077304 
L 353.82469 155.397811 
L 363.366548 141.131799 
L 372.200928 129.590456 
L 380.42554 117.973546 
L 388.11915 108.429497 
L 395.346186 95.206706 
L 402.160017 85.203607 
L 408.605348 73.45041 
L 414.72 59.648714 
" clip-path="url(#p055e73a6ba)" style="fill: none; stroke-dasharray: 4.8,1.8; stroke-dashoffset: 0; stroke: #55a868; stroke-width: 1.2"/>
   </g>
   <g id="line2d_20"/>
   <g id="line2d_21"/>
   <g id="line2d_22"/>
   <g id="line2d_23"/>
   <g id="line2d_24"/>
   <g id="line2d_25"/>
   <g id="line2d_26"/>
   <g id="patch_3">
    <path d="M 57.6 307.584 
L 57.6 41.472 
" style="fill: none; stroke: #cccccc; stroke-linejoin: miter; stroke-linecap: square"/>
   </g>
   <g id="patch_4">
    <path d="M 414.72 307.584 
L 414.72 41.472 
" style="fill: none; stroke: #cccccc; stroke-linejoin: miter; stroke-linecap: square"/>
   </g>
   <g id="patch_5">
    <path d="M 57.6 307.584 
L 414.72 307.584 
" style="fill: none; stroke: #cccccc; stroke-linejoin: miter; stroke-linecap: square"/>
   </g>
   <g id="patch_6">
    <path d="M 57.6 41.472 
L 414.72 41.472 
" style="fill: none; stroke: #cccccc; stroke-linejoin: miter; stroke-linecap: square"/>
   </g>
   <g id="text_16">
    <!-- Execution Time of MjStep and Naive FD (Over 5 Runs) -->
    <g style="fill: #262626" transform="translate(81.0531 35.472) scale(0.1152 -0.1152)">
     <defs>
      <path id="DejaVuSans-66" d="M 2375 4863 
L 2375 4384 
L 1825 4384 
Q 1516 4384 1395 4259 
Q 1275 4134 1275 3809 
L 1275 3500 
L 2222 3500 
L 2222 3053 
L 1275 3053 
L 1275 0 
L 697 0 
L 697 3053 
L 147 3053 
L 147 3500 
L 697 3500 
L 697 3744 
Q 697 4328 969 4595 
Q 1241 4863 1831 4863 
L 2375 4863 
z
" transform="scale(0.015625)"/>
      <path id="DejaVuSans-4d" d="M 628 4666 
L 1569 4666 
L 2759 1491 
L 3956 4666 
L 4897 4666 
L 4897 0 
L 4281 0 
L 4281 4097 
L 3078 897 
L 2444 897 
L 1241 4097 
L 1241 0 
L 628 0 
L 628 4666 
z
" transform="scale(0.015625)"/>
      <path id="DejaVuSans-6a" d="M 603 3500 
L 1178 3500 
L 1178 -63 
Q 1178 -731 923 -1031 
Q 669 -1331 103 -1331 
L -116 -1331 
L -116 -844 
L 38 -844 
Q 366 -844 484 -692 
Q 603 -541 603 -63 
L 603 3500 
z
M 603 4863 
L 1178 4863 
L 1178 4134 
L 603 4134 
L 603 4863 
z
" transform="scale(0.015625)"/>
      <path id="DejaVuSans-70" d="M 1159 525 
L 1159 -1331 
L 581 -1331 
L 581 3500 
L 1159 3500 
L 1159 2969 
Q 1341 3281 1617 3432 
Q 1894 3584 2278 3584 
Q 2916 3584 3314 3078 
Q 3713 2572 3713 1747 
Q 3713 922 3314 415 
Q 2916 -91 2278 -91 
Q 1894 -91 1617 61 
Q 1341 213 1159 525 
z
M 3116 1747 
Q 3116 2381 2855 2742 
Q 2594 3103 2138 3103 
Q 1681 3103 1420 2742 
Q 1159 2381 1159 1747 
Q 1159 1113 1420 752 
Q 1681 391 2138 391 
Q 2594 391 2855 752 
Q 3116 1113 3116 1747 
z
" transform="scale(0.015625)"/>
      <path id="DejaVuSans-64" d="M 2906 2969 
L 2906 4863 
L 3481 4863 
L 3481 0 
L 2906 0 
L 2906 525 
Q 2725 213 2448 61 
Q 2172 -91 1784 -91 
Q 1150 -91 751 415 
Q 353 922 353 1747 
Q 353 2572 751 3078 
Q 1150 3584 1784 3584 
Q 2172 3584 2448 3432 
Q 2725 3281 2906 2969 
z
M 947 1747 
Q 947 1113 1208 752 
Q 1469 391 1925 391 
Q 2381 391 2643 752 
Q 2906 1113 2906 1747 
Q 2906 2381 2643 2742 
Q 2381 3103 1925 3103 
Q 1469 3103 1208 2742 
Q 947 2381 947 1747 
z
" transform="scale(0.015625)"/>
      <path id="DejaVuSans-4e" d="M 628 4666 
L 1478 4666 
L 3547 763 
L 3547 4666 
L 4159 4666 
L 4159 0 
L 3309 0 
L 1241 3903 
L 1241 0 
L 628 0 
L 628 4666 
z
" transform="scale(0.015625)"/>
      <path id="DejaVuSans-76" d="M 191 3500 
L 800 3500 
L 1894 563 
L 2988 3500 
L 3597 3500 
L 2284 0 
L 1503 0 
L 191 3500 
z
" transform="scale(0.015625)"/>
      <path id="DejaVuSans-46" d="M 628 4666 
L 3309 4666 
L 3309 4134 
L 1259 4134 
L 1259 2759 
L 3109 2759 
L 3109 2228 
L 1259 2228 
L 1259 0 
L 628 0 
L 628 4666 
z
" transform="scale(0.015625)"/>
      <path id="DejaVuSans-44" d="M 1259 4147 
L 1259 519 
L 2022 519 
Q 2988 519 3436 956 
Q 3884 1394 3884 2338 
Q 3884 3275 3436 3711 
Q 2988 4147 2022 4147 
L 1259 4147 
z
M 628 4666 
L 1925 4666 
Q 3281 4666 3915 4102 
Q 4550 3538 4550 2338 
Q 4550 1131 3912 565 
Q 3275 0 1925 0 
L 628 0 
L 628 4666 
z
" transform="scale(0.015625)"/>
      <path id="DejaVuSans-4f" d="M 2522 4238 
Q 1834 4238 1429 3725 
Q 1025 3213 1025 2328 
Q 1025 1447 1429 934 
Q 1834 422 2522 422 
Q 3209 422 3611 934 
Q 4013 1447 4013 2328 
Q 4013 3213 3611 3725 
Q 3209 4238 2522 4238 
z
M 2522 4750 
Q 3503 4750 4090 4092 
Q 4678 3434 4678 2328 
Q 4678 1225 4090 567 
Q 3503 -91 2522 -91 
Q 1538 -91 948 565 
Q 359 1222 359 2328 
Q 359 3434 948 4092 
Q 1538 4750 2522 4750 
z
" transform="scale(0.015625)"/>
      <path id="DejaVuSans-72" d="M 2631 2963 
Q 2534 3019 2420 3045 
Q 2306 3072 2169 3072 
Q 1681 3072 1420 2755 
Q 1159 2438 1159 1844 
L 1159 0 
L 581 0 
L 581 3500 
L 1159 3500 
L 1159 2956 
Q 1341 3275 1631 3429 
Q 1922 3584 2338 3584 
Q 2397 3584 2469 3576 
Q 2541 3569 2628 3553 
L 2631 2963 
z
" transform="scale(0.015625)"/>
      <path id="DejaVuSans-52" d="M 2841 2188 
Q 3044 2119 3236 1894 
Q 3428 1669 3622 1275 
L 4263 0 
L 3584 0 
L 2988 1197 
Q 2756 1666 2539 1819 
Q 2322 1972 1947 1972 
L 1259 1972 
L 1259 0 
L 628 0 
L 628 4666 
L 2053 4666 
Q 2853 4666 3247 4331 
Q 3641 3997 3641 3322 
Q 3641 2881 3436 2590 
Q 3231 2300 2841 2188 
z
M 1259 4147 
L 1259 2491 
L 2053 2491 
Q 2509 2491 2742 2702 
Q 2975 2913 2975 3322 
Q 2975 3731 2742 3939 
Q 2509 4147 2053 4147 
L 1259 4147 
z
" transform="scale(0.015625)"/>
     </defs>
     <use xlink:href="#DejaVuSans-45"/>
     <use xlink:href="#DejaVuSans-78" transform="translate(63.183594 0)"/>
     <use xlink:href="#DejaVuSans-65" transform="translate(119.238281 0)"/>
     <use xlink:href="#DejaVuSans-63" transform="translate(180.761719 0)"/>
     <use xlink:href="#DejaVuSans-75" transform="translate(235.742188 0)"/>
     <use xlink:href="#DejaVuSans-74" transform="translate(299.121094 0)"/>
     <use xlink:href="#DejaVuSans-69" transform="translate(338.330078 0)"/>
     <use xlink:href="#DejaVuSans-6f" transform="translate(366.113281 0)"/>
     <use xlink:href="#DejaVuSans-6e" transform="translate(427.294922 0)"/>
     <use xlink:href="#DejaVuSans-20" transform="translate(490.673828 0)"/>
     <use xlink:href="#DejaVuSans-54" transform="translate(522.460938 0)"/>
     <use xlink:href="#DejaVuSans-69" transform="translate(580.419922 0)"/>
     <use xlink:href="#DejaVuSans-6d" transform="translate(608.203125 0)"/>
     <use xlink:href="#DejaVuSans-65" transform="translate(705.615234 0)"/>
     <use xlink:href="#DejaVuSans-20" transform="translate(767.138672 0)"/>
     <use xlink:href="#DejaVuSans-6f" transform="translate(798.925781 0)"/>
     <use xlink:href="#DejaVuSans-66" transform="translate(860.107422 0)"/>
     <use xlink:href="#DejaVuSans-20" transform="translate(895.3125 0)"/>
     <use xlink:href="#DejaVuSans-4d" transform="translate(927.099609 0)"/>
     <use xlink:href="#DejaVuSans-6a" transform="translate(1013.378906 0)"/>
     <use xlink:href="#DejaVuSans-53" transform="translate(1041.162109 0)"/>
     <use xlink:href="#DejaVuSans-74" transform="translate(1104.638672 0)"/>
     <use xlink:href="#DejaVuSans-65" transform="translate(1143.847656 0)"/>
     <use xlink:href="#DejaVuSans-70" transform="translate(1205.371094 0)"/>
     <use xlink:href="#DejaVuSans-20" transform="translate(1268.847656 0)"/>
     <use xlink:href="#DejaVuSans-61" transform="translate(1300.634766 0)"/>
     <use xlink:href="#DejaVuSans-6e" transform="translate(1361.914062 0)"/>
     <use xlink:href="#DejaVuSans-64" transform="translate(1425.292969 0)"/>
     <use xlink:href="#DejaVuSans-20" transform="translate(1488.769531 0)"/>
     <use xlink:href="#DejaVuSans-4e" transform="translate(1520.556641 0)"/>
     <use xlink:href="#DejaVuSans-61" transform="translate(1595.361328 0)"/>
     <use xlink:href="#DejaVuSans-69" transform="translate(1656.640625 0)"/>
     <use xlink:href="#DejaVuSans-76" transform="translate(1684.423828 0)"/>
     <use xlink:href="#DejaVuSans-65" transform="translate(1743.603516 0)"/>
     <use xlink:href="#DejaVuSans-20" transform="translate(1805.126953 0)"/>
     <use xlink:href="#DejaVuSans-46" transform="translate(1836.914062 0)"/>
     <use xlink:href="#DejaVuSans-44" transform="translate(1894.433594 0)"/>
     <use xlink:href="#DejaVuSans-20" transform="translate(1971.435547 0)"/>
     <use xlink:href="#DejaVuSans-28" transform="translate(2003.222656 0)"/>
     <use xlink:href="#DejaVuSans-4f" transform="translate(2042.236328 0)"/>
     <use xlink:href="#DejaVuSans-76" transform="translate(2120.947266 0)"/>
     <use xlink:href="#DejaVuSans-65" transform="translate(2180.126953 0)"/>
     <use xlink:href="#DejaVuSans-72" transform="translate(2241.650391 0)"/>
     <use xlink:href="#DejaVuSans-20" transform="translate(2282.763672 0)"/>
     <use xlink:href="#DejaVuSans-35" transform="translate(2314.550781 0)"/>
     <use xlink:href="#DejaVuSans-20" transform="translate(2378.173828 0)"/>
     <use xlink:href="#DejaVuSans-52" transform="translate(2409.960938 0)"/>
     <use xlink:href="#DejaVuSans-75" transform="translate(2474.943359 0)"/>
     <use xlink:href="#DejaVuSans-6e" transform="translate(2538.322266 0)"/>
     <use xlink:href="#DejaVuSans-73" transform="translate(2601.701172 0)"/>
     <use xlink:href="#DejaVuSans-29" transform="translate(2653.800781 0)"/>
    </g>
   </g>
   <g id="legend_1">
    <g id="patch_7">
     <path d="M 148.1391 111.9204 
L 324.1809 111.9204 
Q 326.2929 111.9204 326.2929 109.8084 
L 326.2929 48.864 
Q 326.2929 46.752 324.1809 46.752 
L 148.1391 46.752 
Q 146.0271 46.752 146.0271 48.864 
L 146.0271 109.8084 
Q 146.0271 111.9204 148.1391 111.9204 
z
" style="fill: #ffffff; opacity: 0.8; stroke: #cccccc; stroke-width: 0.8; stroke-linejoin: miter"/>
    </g>
    <g id="line2d_27">
     <path d="M 150.2511 55.30395 
L 160.8111 55.30395 
L 171.3711 55.30395 
" style="fill: none"/>
    </g>
    <g id="text_17">
     <!-- method -->
     <g style="fill: #262626" transform="translate(179.8191 58.99995) scale(0.1056 -0.1056)">
      <use xlink:href="#DejaVuSans-6d"/>
      <use xlink:href="#DejaVuSans-65" transform="translate(97.412109 0)"/>
      <use xlink:href="#DejaVuSans-74" transform="translate(158.935547 0)"/>
      <use xlink:href="#DejaVuSans-68" transform="translate(198.144531 0)"/>
      <use xlink:href="#DejaVuSans-6f" transform="translate(261.523438 0)"/>
      <use xlink:href="#DejaVuSans-64" transform="translate(322.705078 0)"/>
     </g>
    </g>
    <g id="line2d_28">
     <path d="M 150.2511 70.80405 
L 160.8111 70.80405 
L 171.3711 70.80405 
" style="fill: none; stroke: #4c72b0; stroke-width: 1.2; stroke-linecap: round"/>
    </g>
    <g id="text_18">
     <!-- pyMjStep -->
     <g style="fill: #262626" transform="translate(179.8191 74.50005) scale(0.1056 -0.1056)">
      <defs>
       <path id="DejaVuSans-79" d="M 2059 -325 
Q 1816 -950 1584 -1140 
Q 1353 -1331 966 -1331 
L 506 -1331 
L 506 -850 
L 844 -850 
Q 1081 -850 1212 -737 
Q 1344 -625 1503 -206 
L 1606 56 
L 191 3500 
L 800 3500 
L 1894 763 
L 2988 3500 
L 3597 3500 
L 2059 -325 
z
" transform="scale(0.015625)"/>
      </defs>
      <use xlink:href="#DejaVuSans-70"/>
      <use xlink:href="#DejaVuSans-79" transform="translate(63.476562 0)"/>
      <use xlink:href="#DejaVuSans-4d" transform="translate(122.65625 0)"/>
      <use xlink:href="#DejaVuSans-6a" transform="translate(208.935547 0)"/>
      <use xlink:href="#DejaVuSans-53" transform="translate(236.71875 0)"/>
      <use xlink:href="#DejaVuSans-74" transform="translate(300.195312 0)"/>
      <use xlink:href="#DejaVuSans-65" transform="translate(339.404297 0)"/>
      <use xlink:href="#DejaVuSans-70" transform="translate(400.927734 0)"/>
     </g>
    </g>
    <g id="line2d_29">
     <path d="M 150.2511 86.30415 
L 160.8111 86.30415 
L 171.3711 86.30415 
" style="fill: none; stroke: #dd8452; stroke-width: 1.2; stroke-linecap: round"/>
    </g>
    <g id="text_19">
     <!-- CppMjStep -->
     <g style="fill: #262626" transform="translate(179.8191 90.00015) scale(0.1056 -0.1056)">
      <defs>
       <path id="DejaVuSans-43" d="M 4122 4306 
L 4122 3641 
Q 3803 3938 3442 4084 
Q 3081 4231 2675 4231 
Q 1875 4231 1450 3742 
Q 1025 3253 1025 2328 
Q 1025 1406 1450 917 
Q 1875 428 2675 428 
Q 3081 428 3442 575 
Q 3803 722 4122 1019 
L 4122 359 
Q 3791 134 3420 21 
Q 3050 -91 2638 -91 
Q 1578 -91 968 557 
Q 359 1206 359 2328 
Q 359 3453 968 4101 
Q 1578 4750 2638 4750 
Q 3056 4750 3426 4639 
Q 3797 4528 4122 4306 
z
" transform="scale(0.015625)"/>
      </defs>
      <use xlink:href="#DejaVuSans-43"/>
      <use xlink:href="#DejaVuSans-70" transform="translate(69.824219 0)"/>
      <use xlink:href="#DejaVuSans-70" transform="translate(133.300781 0)"/>
      <use xlink:href="#DejaVuSans-4d" transform="translate(196.777344 0)"/>
      <use xlink:href="#DejaVuSans-6a" transform="translate(283.056641 0)"/>
      <use xlink:href="#DejaVuSans-53" transform="translate(310.839844 0)"/>
      <use xlink:href="#DejaVuSans-74" transform="translate(374.316406 0)"/>
      <use xlink:href="#DejaVuSans-65" transform="translate(413.525391 0)"/>
      <use xlink:href="#DejaVuSans-70" transform="translate(475.048828 0)"/>
     </g>
    </g>
    <g id="line2d_30">
     <path d="M 150.2511 101.80425 
L 160.8111 101.80425 
L 171.3711 101.80425 
" style="fill: none; stroke: #55a868; stroke-width: 1.2; stroke-linecap: round"/>
    </g>
    <g id="text_20">
     <!-- Naive FD -->
     <g style="fill: #262626" transform="translate(179.8191 105.50025) scale(0.1056 -0.1056)">
      <use xlink:href="#DejaVuSans-4e"/>
      <use xlink:href="#DejaVuSans-61" transform="translate(74.804688 0)"/>
      <use xlink:href="#DejaVuSans-69" transform="translate(136.083984 0)"/>
      <use xlink:href="#DejaVuSans-76" transform="translate(163.867188 0)"/>
      <use xlink:href="#DejaVuSans-65" transform="translate(223.046875 0)"/>
      <use xlink:href="#DejaVuSans-20" transform="translate(284.570312 0)"/>
      <use xlink:href="#DejaVuSans-46" transform="translate(316.357422 0)"/>
      <use xlink:href="#DejaVuSans-44" transform="translate(373.876953 0)"/>
     </g>
    </g>
    <g id="line2d_31">
     <path d="M 257.8113 55.30395 
L 268.3713 55.30395 
L 278.9313 55.30395 
" style="fill: none"/>
    </g>
    <g id="text_21">
     <!-- device -->
     <g style="fill: #262626" transform="translate(287.3793 58.99995) scale(0.1056 -0.1056)">
      <use xlink:href="#DejaVuSans-64"/>
      <use xlink:href="#DejaVuSans-65" transform="translate(63.476562 0)"/>
      <use xlink:href="#DejaVuSans-76" transform="translate(125 0)"/>
      <use xlink:href="#DejaVuSans-69" transform="translate(184.179688 0)"/>
      <use xlink:href="#DejaVuSans-63" transform="translate(211.962891 0)"/>
      <use xlink:href="#DejaVuSans-65" transform="translate(266.943359 0)"/>
     </g>
    </g>
    <g id="line2d_32">
     <path d="M 257.8113 70.80405 
L 268.3713 70.80405 
L 278.9313 70.80405 
" style="fill: none; stroke: #333333; stroke-width: 1.2; stroke-linecap: round"/>
    </g>
    <g id="text_22">
     <!-- cpu -->
     <g style="fill: #262626" transform="translate(287.3793 74.50005) scale(0.1056 -0.1056)">
      <use xlink:href="#DejaVuSans-63"/>
      <use xlink:href="#DejaVuSans-70" transform="translate(54.980469 0)"/>
      <use xlink:href="#DejaVuSans-75" transform="translate(118.457031 0)"/>
     </g>
    </g>
    <g id="line2d_33">
     <path d="M 257.8113 86.30415 
L 268.3713 86.30415 
L 278.9313 86.30415 
" style="fill: none; stroke-dasharray: 4.8,1.8; stroke-dashoffset: 0; stroke: #333333; stroke-width: 1.2"/>
    </g>
    <g id="text_23">
     <!-- cuda -->
     <g style="fill: #262626" transform="translate(287.3793 90.00015) scale(0.1056 -0.1056)">
      <use xlink:href="#DejaVuSans-63"/>
      <use xlink:href="#DejaVuSans-75" transform="translate(54.980469 0)"/>
      <use xlink:href="#DejaVuSans-64" transform="translate(118.359375 0)"/>
      <use xlink:href="#DejaVuSans-61" transform="translate(181.835938 0)"/>
     </g>
    </g>
   </g>
  </g>
 </g>
 <defs>
  <clipPath id="p055e73a6ba">
   <rect x="57.6" y="41.472" width="357.12" height="266.112"/>
  </clipPath>
 </defs>
</svg>
