<?xml version="1.0" encoding="utf-8" standalone="no"?>
<!DOCTYPE svg PUBLIC "-//W3C//DTD SVG 1.1//EN"
  "http://www.w3.org/Graphics/SVG/1.1/DTD/svg11.dtd">
<svg xmlns:xlink="http://www.w3.org/1999/xlink" width="460.8pt" height="345.6pt" viewBox="0 0 460.8 345.6" xmlns="http://www.w3.org/2000/svg" version="1.1">
 <metadata>
  <rdf:RDF xmlns:dc="http://purl.org/dc/elements/1.1/" xmlns:cc="http://creativecommons.org/ns#" xmlns:rdf="http://www.w3.org/1999/02/22-rdf-syntax-ns#">
   <cc:Work>
    <dc:type rdf:resource="http://purl.org/dc/dcmitype/StillImage"/>
    <dc:date>2025-08-18T18:53:59.449055</dc:date>
    <dc:format>image/svg+xml</dc:format>
    <dc:creator>
     <cc:Agent>
      <dc:title>Matplotlib v3.10.5, https://matplotlib.org/</dc:title>
     </cc:Agent>
    </dc:creator>
   </cc:Work>
  </rdf:RDF>
 </metadata>
 <defs>
  <style type="text/css">*{stroke-linejoin: round; stroke-linecap: butt}</style>
 </defs>
 <g id="figure_1">
  <g id="patch_1">
   <path d="M 0 345.6 
L 460.8 345.6 
L 460.8 0 
L 0 0 
z
" style="fill: #ffffff"/>
  </g>
  <g id="axes_1">
   <g id="patch_2">
    <path d="M 57.6 307.584 
L 414.72 307.584 
L 414.72 41.472 
L 57.6 41.472 
z
" style="fill: #ffffff"/>
   </g>
   <g id="matplotlib.axis_1">
    <g id="xtick_1">
     <g id="line2d_1">
      <path d="M 57.6 307.584 
L 57.6 41.472 
" clip-path="url(#p55c94b35c6)" style="fill: none; stroke: #cccccc; stroke-width: 0.8; stroke-linecap: round"/>
     </g>
     <g id="text_1">
      <!-- $\mathdefault{2^{0}}$ -->
      <g style="fill: #262626" transform="translate(51.6864 323.90795) scale(0.1056 -0.1056)">
       <defs>
        <path id="DejaVuSans-32" d="M 1228 531 
L 3431 531 
L 3431 0 
L 469 0 
L 469 531 
Q 828 903 1448 1529 
Q 2069 2156 2228 2338 
Q 2531 2678 2651 2914 
Q 2772 3150 2772 3378 
Q 2772 3750 2511 3984 
Q 2250 4219 1831 4219 
Q 1534 4219 1204 4116 
Q 875 4013 500 3803 
L 500 4441 
Q 881 4594 1212 4672 
Q 1544 4750 1819 4750 
Q 2544 4750 2975 4387 
Q 3406 4025 3406 3419 
Q 3406 3131 3298 2873 
Q 3191 2616 2906 2266 
Q 2828 2175 2409 1742 
Q 1991 1309 1228 531 
z
" transform="scale(0.015625)"/>
        <path id="DejaVuSans-30" d="M 2034 4250 
Q 1547 4250 1301 3770 
Q 1056 3291 1056 2328 
Q 1056 1369 1301 889 
Q 1547 409 2034 409 
Q 2525 409 2770 889 
Q 3016 1369 3016 2328 
Q 3016 3291 2770 3770 
Q 2525 4250 2034 4250 
z
M 2034 4750 
Q 2819 4750 3233 4129 
Q 3647 3509 3647 2328 
Q 3647 1150 3233 529 
Q 2819 -91 2034 -91 
Q 1250 -91 836 529 
Q 422 1150 422 2328 
Q 422 3509 836 4129 
Q 1250 4750 2034 4750 
z
" transform="scale(0.015625)"/>
       </defs>
       <use xlink:href="#DejaVuSans-32" transform="translate(0 0.765625)"/>
       <use xlink:href="#DejaVuSans-30" transform="translate(64.580078 39.046875) scale(0.7)"/>
      </g>
     </g>
    </g>
    <g id="xtick_2">
     <g id="line2d_2">
      <path d="M 140.229787 307.584 
L 140.229787 41.472 
" clip-path="url(#p55c94b35c6)" style="fill: none; stroke: #cccccc; stroke-width: 0.8; stroke-linecap: round"/>
     </g>
     <g id="text_2">
      <!-- $\mathdefault{2^{1}}$ -->
      <g style="fill: #262626" transform="translate(134.316187 323.90795) scale(0.1056 -0.1056)">
       <defs>
        <path id="DejaVuSans-31" d="M 794 531 
L 1825 531 
L 1825 4091 
L 703 3866 
L 703 4441 
L 1819 4666 
L 2450 4666 
L 2450 531 
L 3481 531 
L 3481 0 
L 794 0 
L 794 531 
z
" transform="scale(0.015625)"/>
       </defs>
       <use xlink:href="#DejaVuSans-32" transform="translate(0 0.684375)"/>
       <use xlink:href="#DejaVuSans-31" transform="translate(64.580078 38.965625) scale(0.7)"/>
      </g>
     </g>
    </g>
    <g id="xtick_3">
     <g id="line2d_3">
      <path d="M 222.859575 307.584 
L 222.859575 41.472 
" clip-path="url(#p55c94b35c6)" style="fill: none; stroke: #cccccc; stroke-width: 0.8; stroke-linecap: round"/>
     </g>
     <g id="text_3">
      <!-- $\mathdefault{2^{2}}$ -->
      <g style="fill: #262626" transform="translate(216.945975 323.90795) scale(0.1056 -0.1056)">
       <use xlink:href="#DejaVuSans-32" transform="translate(0 0.765625)"/>
       <use xlink:href="#DejaVuSans-32" transform="translate(64.580078 39.046875) scale(0.7)"/>
      </g>
     </g>
    </g>
    <g id="xtick_4">
     <g id="line2d_4">
      <path d="M 305.489362 307.584 
L 305.489362 41.472 
" clip-path="url(#p55c94b35c6)" style="fill: none; stroke: #cccccc; stroke-width: 0.8; stroke-linecap: round"/>
     </g>
     <g id="text_4">
      <!-- $\mathdefault{2^{3}}$ -->
      <g style="fill: #262626" transform="translate(299.575762 323.90795) scale(0.1056 -0.1056)">
       <defs>
        <path id="DejaVuSans-33" d="M 2597 2516 
Q 3050 2419 3304 2112 
Q 3559 1806 3559 1356 
Q 3559 666 3084 287 
Q 2609 -91 1734 -91 
Q 1441 -91 1130 -33 
Q 819 25 488 141 
L 488 750 
Q 750 597 1062 519 
Q 1375 441 1716 441 
Q 2309 441 2620 675 
Q 2931 909 2931 1356 
Q 2931 1769 2642 2001 
Q 2353 2234 1838 2234 
L 1294 2234 
L 1294 2753 
L 1863 2753 
Q 2328 2753 2575 2939 
Q 2822 3125 2822 3475 
Q 2822 3834 2567 4026 
Q 2313 4219 1838 4219 
Q 1578 4219 1281 4162 
Q 984 4106 628 3988 
L 628 4550 
Q 988 4650 1302 4700 
Q 1616 4750 1894 4750 
Q 2613 4750 3031 4423 
Q 3450 4097 3450 3541 
Q 3450 3153 3228 2886 
Q 3006 2619 2597 2516 
z
" transform="scale(0.015625)"/>
       </defs>
       <use xlink:href="#DejaVuSans-32" transform="translate(0 0.765625)"/>
       <use xlink:href="#DejaVuSans-33" transform="translate(64.580078 39.046875) scale(0.7)"/>
      </g>
     </g>
    </g>
    <g id="xtick_5">
     <g id="line2d_5">
      <path d="M 388.11915 307.584 
L 388.11915 41.472 
" clip-path="url(#p55c94b35c6)" style="fill: none; stroke: #cccccc; stroke-width: 0.8; stroke-linecap: round"/>
     </g>
     <g id="text_5">
      <!-- $\mathdefault{2^{4}}$ -->
      <g style="fill: #262626" transform="translate(382.20555 323.90795) scale(0.1056 -0.1056)">
       <defs>
        <path id="DejaVuSans-34" d="M 2419 4116 
L 825 1625 
L 2419 1625 
L 2419 4116 
z
M 2253 4666 
L 3047 4666 
L 3047 1625 
L 3713 1625 
L 3713 1100 
L 3047 1100 
L 3047 0 
L 2419 0 
L 2419 1100 
L 313 1100 
L 313 1709 
L 2253 4666 
z
" transform="scale(0.015625)"/>
       </defs>
       <use xlink:href="#DejaVuSans-32" transform="translate(0 0.684375)"/>
       <use xlink:href="#DejaVuSans-34" transform="translate(64.580078 38.965625) scale(0.7)"/>
      </g>
     </g>
    </g>
    <g id="text_6">
     <!-- Batch Size -->
     <g style="fill: #262626" transform="translate(205.9479 338.8575) scale(0.1152 -0.1152)">
      <defs>
       <path id="DejaVuSans-42" d="M 1259 2228 
L 1259 519 
L 2272 519 
Q 2781 519 3026 730 
Q 3272 941 3272 1375 
Q 3272 1813 3026 2020 
Q 2781 2228 2272 2228 
L 1259 2228 
z
M 1259 4147 
L 1259 2741 
L 2194 2741 
Q 2656 2741 2882 2914 
Q 3109 3088 3109 3444 
Q 3109 3797 2882 3972 
Q 2656 4147 2194 4147 
L 1259 4147 
z
M 628 4666 
L 2241 4666 
Q 2963 4666 3353 4366 
Q 3744 4066 3744 3513 
Q 3744 3084 3544 2831 
Q 3344 2578 2956 2516 
Q 3422 2416 3680 2098 
Q 3938 1781 3938 1306 
Q 3938 681 3513 340 
Q 3088 0 2303 0 
L 628 0 
L 628 4666 
z
" transform="scale(0.015625)"/>
       <path id="DejaVuSans-61" d="M 2194 1759 
Q 1497 1759 1228 1600 
Q 959 1441 959 1056 
Q 959 750 1161 570 
Q 1363 391 1709 391 
Q 2188 391 2477 730 
Q 2766 1069 2766 1631 
L 2766 1759 
L 2194 1759 
z
M 3341 1997 
L 3341 0 
L 2766 0 
L 2766 531 
Q 2569 213 2275 61 
Q 1981 -91 1556 -91 
Q 1019 -91 701 211 
Q 384 513 384 1019 
Q 384 1609 779 1909 
Q 1175 2209 1959 2209 
L 2766 2209 
L 2766 2266 
Q 2766 2663 2505 2880 
Q 2244 3097 1772 3097 
Q 1472 3097 1187 3025 
Q 903 2953 641 2809 
L 641 3341 
Q 956 3463 1253 3523 
Q 1550 3584 1831 3584 
Q 2591 3584 2966 3190 
Q 3341 2797 3341 1997 
z
" transform="scale(0.015625)"/>
       <path id="DejaVuSans-74" d="M 1172 4494 
L 1172 3500 
L 2356 3500 
L 2356 3053 
L 1172 3053 
L 1172 1153 
Q 1172 725 1289 603 
Q 1406 481 1766 481 
L 2356 481 
L 2356 0 
L 1766 0 
Q 1100 0 847 248 
Q 594 497 594 1153 
L 594 3053 
L 172 3053 
L 172 3500 
L 594 3500 
L 594 4494 
L 1172 4494 
z
" transform="scale(0.015625)"/>
       <path id="DejaVuSans-63" d="M 3122 3366 
L 3122 2828 
Q 2878 2963 2633 3030 
Q 2388 3097 2138 3097 
Q 1578 3097 1268 2742 
Q 959 2388 959 1747 
Q 959 1106 1268 751 
Q 1578 397 2138 397 
Q 2388 397 2633 464 
Q 2878 531 3122 666 
L 3122 134 
Q 2881 22 2623 -34 
Q 2366 -91 2075 -91 
Q 1284 -91 818 406 
Q 353 903 353 1747 
Q 353 2603 823 3093 
Q 1294 3584 2113 3584 
Q 2378 3584 2631 3529 
Q 2884 3475 3122 3366 
z
" transform="scale(0.015625)"/>
       <path id="DejaVuSans-68" d="M 3513 2113 
L 3513 0 
L 2938 0 
L 2938 2094 
Q 2938 2591 2744 2837 
Q 2550 3084 2163 3084 
Q 1697 3084 1428 2787 
Q 1159 2491 1159 1978 
L 1159 0 
L 581 0 
L 581 4863 
L 1159 4863 
L 1159 2956 
Q 1366 3272 1645 3428 
Q 1925 3584 2291 3584 
Q 2894 3584 3203 3211 
Q 3513 2838 3513 2113 
z
" transform="scale(0.015625)"/>
       <path id="DejaVuSans-20" transform="scale(0.015625)"/>
       <path id="DejaVuSans-53" d="M 3425 4513 
L 3425 3897 
Q 3066 4069 2747 4153 
Q 2428 4238 2131 4238 
Q 1616 4238 1336 4038 
Q 1056 3838 1056 3469 
Q 1056 3159 1242 3001 
Q 1428 2844 1947 2747 
L 2328 2669 
Q 3034 2534 3370 2195 
Q 3706 1856 3706 1288 
Q 3706 609 3251 259 
Q 2797 -91 1919 -91 
Q 1588 -91 1214 -16 
Q 841 59 441 206 
L 441 856 
Q 825 641 1194 531 
Q 1563 422 1919 422 
Q 2459 422 2753 634 
Q 3047 847 3047 1241 
Q 3047 1584 2836 1778 
Q 2625 1972 2144 2069 
L 1759 2144 
Q 1053 2284 737 2584 
Q 422 2884 422 3419 
Q 422 4038 858 4394 
Q 1294 4750 2059 4750 
Q 2388 4750 2728 4690 
Q 3069 4631 3425 4513 
z
" transform="scale(0.015625)"/>
       <path id="DejaVuSans-69" d="M 603 3500 
L 1178 3500 
L 1178 0 
L 603 0 
L 603 3500 
z
M 603 4863 
L 1178 4863 
L 1178 4134 
L 603 4134 
L 603 4863 
z
" transform="scale(0.015625)"/>
       <path id="DejaVuSans-7a" d="M 353 3500 
L 3084 3500 
L 3084 2975 
L 922 459 
L 3084 459 
L 3084 0 
L 275 0 
L 275 525 
L 2438 3041 
L 353 3041 
L 353 3500 
z
" transform="scale(0.015625)"/>
       <path id="DejaVuSans-65" d="M 3597 1894 
L 3597 1613 
L 953 1613 
Q 991 1019 1311 708 
Q 1631 397 2203 397 
Q 2534 397 2845 478 
Q 3156 559 3463 722 
L 3463 178 
Q 3153 47 2828 -22 
Q 2503 -91 2169 -91 
Q 1331 -91 842 396 
Q 353 884 353 1716 
Q 353 2575 817 3079 
Q 1281 3584 2069 3584 
Q 2775 3584 3186 3129 
Q 3597 2675 3597 1894 
z
M 3022 2063 
Q 3016 2534 2758 2815 
Q 2500 3097 2075 3097 
Q 1594 3097 1305 2825 
Q 1016 2553 972 2059 
L 3022 2063 
z
" transform="scale(0.015625)"/>
      </defs>
      <use xlink:href="#DejaVuSans-42"/>
      <use xlink:href="#DejaVuSans-61" transform="translate(68.603516 0)"/>
      <use xlink:href="#DejaVuSans-74" transform="translate(129.882812 0)"/>
      <use xlink:href="#DejaVuSans-63" transform="translate(169.091797 0)"/>
      <use xlink:href="#DejaVuSans-68" transform="translate(224.072266 0)"/>
      <use xlink:href="#DejaVuSans-20" transform="translate(287.451172 0)"/>
      <use xlink:href="#DejaVuSans-53" transform="translate(319.238281 0)"/>
      <use xlink:href="#DejaVuSans-69" transform="translate(382.714844 0)"/>
      <use xlink:href="#DejaVuSans-7a" transform="translate(410.498047 0)"/>
      <use xlink:href="#DejaVuSans-65" transform="translate(462.988281 0)"/>
     </g>
    </g>
   </g>
   <g id="matplotlib.axis_2">
    <g id="ytick_1">
     <g id="line2d_6">
      <path d="M 57.6 297.772697 
L 414.72 297.772697 
" clip-path="url(#p55c94b35c6)" style="fill: none; stroke: #cccccc; stroke-width: 0.8; stroke-linecap: round"/>
     </g>
     <g id="text_7">
      <!-- 0 -->
      <g style="fill: #262626" transform="translate(42.5812 301.784672) scale(0.1056 -0.1056)">
       <use xlink:href="#DejaVuSans-30"/>
      </g>
     </g>
    </g>
    <g id="ytick_2">
     <g id="line2d_7">
      <path d="M 57.6 239.446975 
L 414.72 239.446975 
" clip-path="url(#p55c94b35c6)" style="fill: none; stroke: #cccccc; stroke-width: 0.8; stroke-linecap: round"/>
     </g>
     <g id="text_8">
      <!-- 5 -->
      <g style="fill: #262626" transform="translate(42.5812 243.45895) scale(0.1056 -0.1056)">
       <defs>
        <path id="DejaVuSans-35" d="M 691 4666 
L 3169 4666 
L 3169 4134 
L 1269 4134 
L 1269 2991 
Q 1406 3038 1543 3061 
Q 1681 3084 1819 3084 
Q 2600 3084 3056 2656 
Q 3513 2228 3513 1497 
Q 3513 744 3044 326 
Q 2575 -91 1722 -91 
Q 1428 -91 1123 -41 
Q 819 9 494 109 
L 494 744 
Q 775 591 1075 516 
Q 1375 441 1709 441 
Q 2250 441 2565 725 
Q 2881 1009 2881 1497 
Q 2881 1984 2565 2268 
Q 2250 2553 1709 2553 
Q 1456 2553 1204 2497 
Q 953 2441 691 2322 
L 691 4666 
z
" transform="scale(0.015625)"/>
       </defs>
       <use xlink:href="#DejaVuSans-35"/>
      </g>
     </g>
    </g>
    <g id="ytick_3">
     <g id="line2d_8">
      <path d="M 57.6 181.121253 
L 414.72 181.121253 
" clip-path="url(#p55c94b35c6)" style="fill: none; stroke: #cccccc; stroke-width: 0.8; stroke-linecap: round"/>
     </g>
     <g id="text_9">
      <!-- 10 -->
      <g style="fill: #262626" transform="translate(35.8624 185.133228) scale(0.1056 -0.1056)">
       <use xlink:href="#DejaVuSans-31"/>
       <use xlink:href="#DejaVuSans-30" transform="translate(63.623047 0)"/>
      </g>
     </g>
    </g>
    <g id="ytick_4">
     <g id="line2d_9">
      <path d="M 57.6 122.795532 
L 414.72 122.795532 
" clip-path="url(#p55c94b35c6)" style="fill: none; stroke: #cccccc; stroke-width: 0.8; stroke-linecap: round"/>
     </g>
     <g id="text_10">
      <!-- 15 -->
      <g style="fill: #262626" transform="translate(35.8624 126.807507) scale(0.1056 -0.1056)">
       <use xlink:href="#DejaVuSans-31"/>
       <use xlink:href="#DejaVuSans-35" transform="translate(63.623047 0)"/>
      </g>
     </g>
    </g>
    <g id="ytick_5">
     <g id="line2d_10">
      <path d="M 57.6 64.46981 
L 414.72 64.46981 
" clip-path="url(#p55c94b35c6)" style="fill: none; stroke: #cccccc; stroke-width: 0.8; stroke-linecap: round"/>
     </g>
     <g id="text_11">
      <!-- 20 -->
      <g style="fill: #262626" transform="translate(35.8624 68.481785) scale(0.1056 -0.1056)">
       <use xlink:href="#DejaVuSans-32"/>
       <use xlink:href="#DejaVuSans-30" transform="translate(63.623047 0)"/>
      </g>
     </g>
    </g>
    <g id="text_12">
     <!-- Execution Time (s) -->
     <g style="fill: #262626" transform="translate(29.4666 228.0411) rotate(-90) scale(0.1152 -0.1152)">
      <defs>
       <path id="DejaVuSans-45" d="M 628 4666 
L 3578 4666 
L 3578 4134 
L 1259 4134 
L 1259 2753 
L 3481 2753 
L 3481 2222 
L 1259 2222 
L 1259 531 
L 3634 531 
L 3634 0 
L 628 0 
L 628 4666 
z
" transform="scale(0.015625)"/>
       <path id="DejaVuSans-78" d="M 3513 3500 
L 2247 1797 
L 3578 0 
L 2900 0 
L 1881 1375 
L 863 0 
L 184 0 
L 1544 1831 
L 300 3500 
L 978 3500 
L 1906 2253 
L 2834 3500 
L 3513 3500 
z
" transform="scale(0.015625)"/>
       <path id="DejaVuSans-75" d="M 544 1381 
L 544 3500 
L 1119 3500 
L 1119 1403 
Q 1119 906 1312 657 
Q 1506 409 1894 409 
Q 2359 409 2629 706 
Q 2900 1003 2900 1516 
L 2900 3500 
L 3475 3500 
L 3475 0 
L 2900 0 
L 2900 538 
Q 2691 219 2414 64 
Q 2138 -91 1772 -91 
Q 1169 -91 856 284 
Q 544 659 544 1381 
z
M 1991 3584 
L 1991 3584 
z
" transform="scale(0.015625)"/>
       <path id="DejaVuSans-6f" d="M 1959 3097 
Q 1497 3097 1228 2736 
Q 959 2375 959 1747 
Q 959 1119 1226 758 
Q 1494 397 1959 397 
Q 2419 397 2687 759 
Q 2956 1122 2956 1747 
Q 2956 2369 2687 2733 
Q 2419 3097 1959 3097 
z
M 1959 3584 
Q 2709 3584 3137 3096 
Q 3566 2609 3566 1747 
Q 3566 888 3137 398 
Q 2709 -91 1959 -91 
Q 1206 -91 779 398 
Q 353 888 353 1747 
Q 353 2609 779 3096 
Q 1206 3584 1959 3584 
z
" transform="scale(0.015625)"/>
       <path id="DejaVuSans-6e" d="M 3513 2113 
L 3513 0 
L 2938 0 
L 2938 2094 
Q 2938 2591 2744 2837 
Q 2550 3084 2163 3084 
Q 1697 3084 1428 2787 
Q 1159 2491 1159 1978 
L 1159 0 
L 581 0 
L 581 3500 
L 1159 3500 
L 1159 2956 
Q 1366 3272 1645 3428 
Q 1925 3584 2291 3584 
Q 2894 3584 3203 3211 
Q 3513 2838 3513 2113 
z
" transform="scale(0.015625)"/>
       <path id="DejaVuSans-54" d="M -19 4666 
L 3928 4666 
L 3928 4134 
L 2272 4134 
L 2272 0 
L 1638 0 
L 1638 4134 
L -19 4134 
L -19 4666 
z
" transform="scale(0.015625)"/>
       <path id="DejaVuSans-6d" d="M 3328 2828 
Q 3544 3216 3844 3400 
Q 4144 3584 4550 3584 
Q 5097 3584 5394 3201 
Q 5691 2819 5691 2113 
L 5691 0 
L 5113 0 
L 5113 2094 
Q 5113 2597 4934 2840 
Q 4756 3084 4391 3084 
Q 3944 3084 3684 2787 
Q 3425 2491 3425 1978 
L 3425 0 
L 2847 0 
L 2847 2094 
Q 2847 2600 2669 2842 
Q 2491 3084 2119 3084 
Q 1678 3084 1418 2786 
Q 1159 2488 1159 1978 
L 1159 0 
L 581 0 
L 581 3500 
L 1159 3500 
L 1159 2956 
Q 1356 3278 1631 3431 
Q 1906 3584 2284 3584 
Q 2666 3584 2933 3390 
Q 3200 3197 3328 2828 
z
" transform="scale(0.015625)"/>
       <path id="DejaVuSans-28" d="M 1984 4856 
Q 1566 4138 1362 3434 
Q 1159 2731 1159 2009 
Q 1159 1288 1364 580 
Q 1569 -128 1984 -844 
L 1484 -844 
Q 1016 -109 783 600 
Q 550 1309 550 2009 
Q 550 2706 781 3412 
Q 1013 4119 1484 4856 
L 1984 4856 
z
" transform="scale(0.015625)"/>
       <path id="DejaVuSans-73" d="M 2834 3397 
L 2834 2853 
Q 2591 2978 2328 3040 
Q 2066 3103 1784 3103 
Q 1356 3103 1142 2972 
Q 928 2841 928 2578 
Q 928 2378 1081 2264 
Q 1234 2150 1697 2047 
L 1894 2003 
Q 2506 1872 2764 1633 
Q 3022 1394 3022 966 
Q 3022 478 2636 193 
Q 2250 -91 1575 -91 
Q 1294 -91 989 -36 
Q 684 19 347 128 
L 347 722 
Q 666 556 975 473 
Q 1284 391 1588 391 
Q 1994 391 2212 530 
Q 2431 669 2431 922 
Q 2431 1156 2273 1281 
Q 2116 1406 1581 1522 
L 1381 1569 
Q 847 1681 609 1914 
Q 372 2147 372 2553 
Q 372 3047 722 3315 
Q 1072 3584 1716 3584 
Q 2034 3584 2315 3537 
Q 2597 3491 2834 3397 
z
" transform="scale(0.015625)"/>
       <path id="DejaVuSans-29" d="M 513 4856 
L 1013 4856 
Q 1481 4119 1714 3412 
Q 1947 2706 1947 2009 
Q 1947 1309 1714 600 
Q 1481 -109 1013 -844 
L 513 -844 
Q 928 -128 1133 580 
Q 1338 1288 1338 2009 
Q 1338 2731 1133 3434 
Q 928 4138 513 4856 
z
" transform="scale(0.015625)"/>
      </defs>
      <use xlink:href="#DejaVuSans-45"/>
      <use xlink:href="#DejaVuSans-78" transform="translate(63.183594 0)"/>
      <use xlink:href="#DejaVuSans-65" transform="translate(119.238281 0)"/>
      <use xlink:href="#DejaVuSans-63" transform="translate(180.761719 0)"/>
      <use xlink:href="#DejaVuSans-75" transform="translate(235.742188 0)"/>
      <use xlink:href="#DejaVuSans-74" transform="translate(299.121094 0)"/>
      <use xlink:href="#DejaVuSans-69" transform="translate(338.330078 0)"/>
      <use xlink:href="#DejaVuSans-6f" transform="translate(366.113281 0)"/>
      <use xlink:href="#DejaVuSans-6e" transform="translate(427.294922 0)"/>
      <use xlink:href="#DejaVuSans-20" transform="translate(490.673828 0)"/>
      <use xlink:href="#DejaVuSans-54" transform="translate(522.460938 0)"/>
      <use xlink:href="#DejaVuSans-69" transform="translate(580.419922 0)"/>
      <use xlink:href="#DejaVuSans-6d" transform="translate(608.203125 0)"/>
      <use xlink:href="#DejaVuSans-65" transform="translate(705.615234 0)"/>
      <use xlink:href="#DejaVuSans-20" transform="translate(767.138672 0)"/>
      <use xlink:href="#DejaVuSans-28" transform="translate(798.925781 0)"/>
      <use xlink:href="#DejaVuSans-73" transform="translate(837.939453 0)"/>
      <use xlink:href="#DejaVuSans-29" transform="translate(890.039062 0)"/>
     </g>
    </g>
   </g>
   <g id="FillBetweenPolyCollection_1">
    <defs>
     <path id="m3b89afd612" d="M 57.6 -53.303303 
L 57.6 -51.577567 
L 140.229787 -55.193396 
L 188.565115 -60.834797 
L 222.859575 -64.111152 
L 249.460425 -70.635847 
L 271.194902 -75.164929 
L 289.571141 -82.336215 
L 305.489362 -84.071914 
L 319.530229 -86.773799 
L 332.090213 -98.450353 
L 343.452099 -93.659355 
L 353.82469 -107.548816 
L 363.366548 -107.394809 
L 372.200928 -118.91207 
L 380.42554 -115.128485 
L 388.11915 -122.883891 
L 395.346186 -119.456717 
L 402.160017 -129.835483 
L 408.605348 -134.35711 
L 414.72 -141.461089 
L 414.72 -155.014365 
L 414.72 -155.014365 
L 408.605348 -140.139999 
L 402.160017 -139.552641 
L 395.346186 -138.094609 
L 388.11915 -128.998294 
L 380.42554 -125.473508 
L 372.200928 -122.514941 
L 363.366548 -114.310392 
L 353.82469 -115.103011 
L 343.452099 -107.926276 
L 332.090213 -102.332334 
L 319.530229 -97.478693 
L 305.489362 -93.468501 
L 289.571141 -86.624703 
L 271.194902 -80.456989 
L 249.460425 -79.83133 
L 222.859575 -70.571789 
L 188.565115 -64.274591 
L 140.229787 -57.670014 
L 57.6 -53.303303 
z
" style="stroke: #4c72b0; stroke-opacity: 0.2; stroke-width: 0.8"/>
    </defs>
    <g clip-path="url(#p55c94b35c6)">
     <use xlink:href="#m3b89afd612" x="0" y="345.6" style="fill: #4c72b0; fill-opacity: 0.2; stroke: #4c72b0; stroke-opacity: 0.2; stroke-width: 0.8"/>
    </g>
   </g>
   <g id="FillBetweenPolyCollection_2">
    <defs>
     <path id="m634537d107" d="M 57.6 -53.431488 
L 57.6 -51.469544 
L 140.229787 -57.614052 
L 188.565115 -61.943048 
L 222.859575 -66.444354 
L 249.460425 -70.291519 
L 271.194902 -75.702886 
L 289.571141 -77.072042 
L 305.489362 -84.85563 
L 319.530229 -90.041253 
L 332.090213 -95.474745 
L 343.452099 -98.772818 
L 353.82469 -101.78802 
L 363.366548 -101.331008 
L 372.200928 -118.421668 
L 380.42554 -121.620759 
L 388.11915 -123.146598 
L 395.346186 -130.447846 
L 402.160017 -131.213924 
L 408.605348 -140.748574 
L 414.72 -142.129945 
L 414.72 -151.386372 
L 414.72 -151.386372 
L 408.605348 -149.476579 
L 402.160017 -144.034423 
L 395.346186 -145.581647 
L 388.11915 -133.936101 
L 380.42554 -127.140362 
L 372.200928 -124.301543 
L 363.366548 -117.803886 
L 353.82469 -108.03656 
L 343.452099 -106.330042 
L 332.090213 -103.079692 
L 319.530229 -93.890527 
L 305.489362 -91.346651 
L 289.571141 -86.959766 
L 271.194902 -83.409415 
L 249.460425 -75.877976 
L 222.859575 -71.313992 
L 188.565115 -65.410346 
L 140.229787 -59.156572 
L 57.6 -53.431488 
z
" style="stroke: #4c72b0; stroke-opacity: 0.2; stroke-width: 0.8"/>
    </defs>
    <g clip-path="url(#p55c94b35c6)">
     <use xlink:href="#m634537d107" x="0" y="345.6" style="fill: #4c72b0; fill-opacity: 0.2; stroke: #4c72b0; stroke-opacity: 0.2; stroke-width: 0.8"/>
    </g>
   </g>
   <g id="FillBetweenPolyCollection_3">
    <defs>
     <path id="m9161d3f12d" d="M 57.6 -50.597184 
L 57.6 -50.112 
L 140.229787 -51.722355 
L 188.565115 -54.04634 
L 222.859575 -55.589092 
L 249.460425 -57.961442 
L 271.194902 -60.095621 
L 289.571141 -62.991326 
L 305.489362 -63.13518 
L 319.530229 -64.789831 
L 332.090213 -68.53078 
L 343.452099 -67.744798 
L 353.82469 -73.01832 
L 363.366548 -73.788915 
L 372.200928 -76.886688 
L 380.42554 -76.603603 
L 388.11915 -79.00345 
L 395.346186 -78.452458 
L 402.160017 -82.74477 
L 408.605348 -84.28671 
L 414.72 -85.904186 
L 414.72 -91.586581 
L 414.72 -91.586581 
L 408.605348 -86.159397 
L 402.160017 -85.190006 
L 395.346186 -83.919631 
L 388.11915 -81.302729 
L 380.42554 -79.407549 
L 372.200928 -77.971624 
L 363.366548 -75.615281 
L 353.82469 -75.262861 
L 343.452099 -71.454118 
L 332.090213 -69.611628 
L 319.530229 -68.307761 
L 305.489362 -66.865227 
L 289.571141 -63.774712 
L 271.194902 -61.639043 
L 249.460425 -60.205029 
L 222.859575 -57.976723 
L 188.565115 -55.46205 
L 140.229787 -52.900498 
L 57.6 -50.597184 
z
" style="stroke: #dd8452; stroke-opacity: 0.2; stroke-width: 0.8"/>
    </defs>
    <g clip-path="url(#p55c94b35c6)">
     <use xlink:href="#m9161d3f12d" x="0" y="345.6" style="fill: #dd8452; fill-opacity: 0.2; stroke: #dd8452; stroke-opacity: 0.2; stroke-width: 0.8"/>
    </g>
   </g>
   <g id="FillBetweenPolyCollection_4">
    <defs>
     <path id="md26faa173f" d="M 57.6 -50.780138 
L 57.6 -50.128161 
L 140.229787 -52.470447 
L 188.565115 -54.282348 
L 222.859575 -56.643246 
L 249.460425 -58.023638 
L 271.194902 -60.027051 
L 289.571141 -61.268121 
L 305.489362 -63.715746 
L 319.530229 -66.262665 
L 332.090213 -67.316331 
L 343.452099 -69.213207 
L 353.82469 -70.704528 
L 363.366548 -71.219202 
L 372.200928 -74.82311 
L 380.42554 -78.066221 
L 388.11915 -79.54084 
L 395.346186 -82.769046 
L 402.160017 -82.101035 
L 408.605348 -85.116403 
L 414.72 -87.695311 
L 414.72 -89.549608 
L 414.72 -89.549608 
L 408.605348 -88.60661 
L 402.160017 -87.650308 
L 395.346186 -85.861863 
L 388.11915 -81.989517 
L 380.42554 -80.542801 
L 372.200928 -78.584545 
L 363.366548 -76.068302 
L 353.82469 -73.467753 
L 343.452099 -71.81555 
L 332.090213 -71.29512 
L 319.530229 -67.095369 
L 305.489362 -66.52382 
L 289.571141 -64.303311 
L 271.194902 -62.326784 
L 249.460425 -59.921768 
L 222.859575 -57.216263 
L 188.565115 -55.107496 
L 140.229787 -53.550644 
L 57.6 -50.780138 
z
" style="stroke: #dd8452; stroke-opacity: 0.2; stroke-width: 0.8"/>
    </defs>
    <g clip-path="url(#p55c94b35c6)">
     <use xlink:href="#md26faa173f" x="0" y="345.6" style="fill: #dd8452; fill-opacity: 0.2; stroke: #dd8452; stroke-opacity: 0.2; stroke-width: 0.8"/>
    </g>
   </g>
   <g id="FillBetweenPolyCollection_5">
    <defs>
     <path id="m690a0a1ccf" d="M 57.6 -59.484608 
L 57.6 -52.321086 
L 140.229787 -56.7876 
L 188.565115 -68.564924 
L 222.859575 -78.999282 
L 249.460425 -82.42017 
L 271.194902 -88.860244 
L 289.571141 -104.75528 
L 305.489362 -109.139824 
L 319.530229 -110.578465 
L 332.090213 -109.775605 
L 343.452099 -140.772324 
L 353.82469 -125.157423 
L 363.366548 -153.178256 
L 372.200928 -161.885833 
L 380.42554 -175.027727 
L 388.11915 -139.377254 
L 395.346186 -165.443624 
L 402.160017 -165.1782 
L 408.605348 -145.224984 
L 414.72 -182.263191 
L 414.72 -256.771862 
L 414.72 -256.771862 
L 408.605348 -198.029537 
L 402.160017 -221.175959 
L 395.346186 -215.29309 
L 388.11915 -203.950047 
L 380.42554 -192.436578 
L 372.200928 -183.39338 
L 363.366548 -164.205451 
L 353.82469 -163.151921 
L 343.452099 -152.49964 
L 332.090213 -144.719503 
L 319.530229 -135.881641 
L 305.489362 -125.410461 
L 289.571141 -121.220266 
L 271.194902 -105.000551 
L 249.460425 -90.456474 
L 222.859575 -87.932504 
L 188.565115 -79.893787 
L 140.229787 -65.099028 
L 57.6 -59.484608 
z
" style="stroke: #55a868; stroke-opacity: 0.2; stroke-width: 0.8"/>
    </defs>
    <g clip-path="url(#p55c94b35c6)">
     <use xlink:href="#m690a0a1ccf" x="0" y="345.6" style="fill: #55a868; fill-opacity: 0.2; stroke: #55a868; stroke-opacity: 0.2; stroke-width: 0.8"/>
    </g>
   </g>
   <g id="FillBetweenPolyCollection_6">
    <defs>
     <path id="mda4aa1d55b" d="M 57.6 -62.047582 
L 57.6 -57.173014 
L 140.229787 -59.762466 
L 188.565115 -73.104147 
L 222.859575 -75.381298 
L 249.460425 -81.146463 
L 271.194902 -100.138363 
L 289.571141 -105.326186 
L 305.489362 -125.012273 
L 319.530229 -111.528829 
L 332.090213 -137.046034 
L 343.452099 -134.392559 
L 353.82469 -154.031923 
L 363.366548 -160.340018 
L 372.200928 -210.396126 
L 380.42554 -183.411226 
L 388.11915 -182.987597 
L 395.346186 -229.470715 
L 402.160017 -245.641599 
L 408.605348 -210.267248 
L 414.72 -271.367668 
L 414.72 -292.032 
L 414.72 -292.032 
L 408.605348 -291.949354 
L 402.160017 -268.062307 
L 395.346186 -251.601565 
L 388.11915 -241.371454 
L 380.42554 -243.533774 
L 372.200928 -217.582246 
L 363.366548 -199.604677 
L 353.82469 -193.464596 
L 343.452099 -175.401174 
L 332.090213 -182.399207 
L 319.530229 -142.931477 
L 305.489362 -147.966194 
L 289.571141 -132.355536 
L 271.194902 -120.163033 
L 249.460425 -106.129891 
L 222.859575 -89.0651 
L 188.565115 -90.715019 
L 140.229787 -70.462218 
L 57.6 -62.047582 
z
" style="stroke: #55a868; stroke-opacity: 0.2; stroke-width: 0.8"/>
    </defs>
    <g clip-path="url(#p55c94b35c6)">
     <use xlink:href="#mda4aa1d55b" x="0" y="345.6" style="fill: #55a868; fill-opacity: 0.2; stroke: #55a868; stroke-opacity: 0.2; stroke-width: 0.8"/>
    </g>
   </g>
   <g id="line2d_11">
    <path d="M 57.6 293.159565 
L 140.229787 289.168295 
L 188.565115 283.045306 
L 222.859575 278.258529 
L 249.460425 270.366412 
L 271.194902 267.789041 
L 289.571141 261.119541 
L 305.489362 256.829793 
L 319.530229 253.473754 
L 332.090213 245.208656 
L 343.452099 244.807184 
L 353.82469 234.274086 
L 363.366548 234.747399 
L 372.200928 224.886495 
L 380.42554 225.299004 
L 388.11915 219.658907 
L 395.346186 216.824337 
L 402.160017 210.905938 
L 408.605348 208.351445 
L 414.72 197.362273 
" clip-path="url(#p55c94b35c6)" style="fill: none; stroke: #4c72b0; stroke-width: 1.2; stroke-linecap: round"/>
   </g>
   <g id="line2d_12">
    <path d="M 57.6 293.149484 
L 140.229787 287.214688 
L 188.565115 281.923303 
L 222.859575 276.720827 
L 249.460425 272.515253 
L 271.194902 266.043849 
L 289.571141 263.584096 
L 305.489362 257.49886 
L 319.530229 253.63411 
L 332.090213 246.322782 
L 343.452099 243.04857 
L 353.82469 240.68771 
L 363.366548 236.032553 
L 372.200928 224.238395 
L 380.42554 221.21944 
L 388.11915 217.05865 
L 395.346186 207.585253 
L 402.160017 207.975827 
L 408.605348 200.487424 
L 414.72 198.841842 
" clip-path="url(#p55c94b35c6)" style="fill: none; stroke-dasharray: 4.8,1.8; stroke-dashoffset: 0; stroke: #4c72b0; stroke-width: 1.2"/>
   </g>
   <g id="line2d_13">
    <path d="M 57.6 295.245408 
L 140.229787 293.288574 
L 188.565115 290.845805 
L 222.859575 288.817092 
L 249.460425 286.516764 
L 271.194902 284.732668 
L 289.571141 282.216981 
L 305.489362 280.599797 
L 319.530229 279.051204 
L 332.090213 276.528796 
L 343.452099 276.000542 
L 353.82469 271.45941 
L 363.366548 270.897902 
L 372.200928 268.170844 
L 380.42554 267.594424 
L 388.11915 265.446911 
L 395.346186 264.413956 
L 402.160017 261.632612 
L 408.605348 260.376946 
L 414.72 256.854617 
" clip-path="url(#p55c94b35c6)" style="fill: none; stroke: #dd8452; stroke-width: 1.2; stroke-linecap: round"/>
   </g>
   <g id="line2d_14">
    <path d="M 57.6 295.14585 
L 140.229787 292.589454 
L 188.565115 290.905078 
L 222.859575 288.670245 
L 249.460425 286.627297 
L 271.194902 284.423082 
L 289.571141 282.814284 
L 305.489362 280.480217 
L 319.530229 278.920983 
L 332.090213 276.294275 
L 343.452099 275.085621 
L 353.82469 273.513859 
L 363.366548 271.956248 
L 372.200928 268.896173 
L 380.42554 266.295489 
L 388.11915 264.834821 
L 395.346186 261.284545 
L 402.160017 260.724329 
L 408.605348 258.738494 
L 414.72 256.977541 
" clip-path="url(#p55c94b35c6)" style="fill: none; stroke-dasharray: 4.8,1.8; stroke-dashoffset: 0; stroke: #dd8452; stroke-width: 1.2"/>
   </g>
   <g id="line2d_15">
    <path d="M 57.6 289.697153 
L 140.229787 284.656686 
L 188.565115 271.370645 
L 222.859575 262.134107 
L 249.460425 259.161678 
L 271.194902 248.669603 
L 289.571141 232.612227 
L 305.489362 228.324857 
L 319.530229 222.369947 
L 332.090213 218.352446 
L 343.452099 198.964018 
L 353.82469 201.445328 
L 363.366548 186.908147 
L 372.200928 172.960394 
L 380.42554 161.867848 
L 388.11915 173.936349 
L 395.346186 155.231643 
L 402.160017 152.422921 
L 408.605348 173.97274 
L 414.72 126.082474 
" clip-path="url(#p55c94b35c6)" style="fill: none; stroke: #55a868; stroke-width: 1.2; stroke-linecap: round"/>
   </g>
   <g id="line2d_16">
    <path d="M 57.6 285.989702 
L 140.229787 280.487658 
L 188.565115 263.690417 
L 222.859575 263.376801 
L 249.460425 251.961823 
L 271.194902 235.449302 
L 289.571141 226.759139 
L 305.489362 209.110766 
L 319.530229 218.369847 
L 332.090213 185.87738 
L 343.452099 190.703134 
L 353.82469 171.851741 
L 363.366548 165.627652 
L 372.200928 131.610814 
L 380.42554 132.1275 
L 388.11915 133.420475 
L 395.346186 105.06386 
L 402.160017 88.748047 
L 408.605348 94.491699 
L 414.72 63.900166 
" clip-path="url(#p55c94b35c6)" style="fill: none; stroke-dasharray: 4.8,1.8; stroke-dashoffset: 0; stroke: #55a868; stroke-width: 1.2"/>
   </g>
   <g id="line2d_17"/>
   <g id="line2d_18"/>
   <g id="line2d_19"/>
   <g id="line2d_20"/>
   <g id="line2d_21"/>
   <g id="line2d_22"/>
   <g id="line2d_23"/>
   <g id="patch_3">
    <path d="M 57.6 307.584 
L 57.6 41.472 
" style="fill: none; stroke: #cccccc; stroke-linejoin: miter; stroke-linecap: square"/>
   </g>
   <g id="patch_4">
    <path d="M 414.72 307.584 
L 414.72 41.472 
" style="fill: none; stroke: #cccccc; stroke-linejoin: miter; stroke-linecap: square"/>
   </g>
   <g id="patch_5">
    <path d="M 57.6 307.584 
L 414.72 307.584 
" style="fill: none; stroke: #cccccc; stroke-linejoin: miter; stroke-linecap: square"/>
   </g>
   <g id="patch_6">
    <path d="M 57.6 41.472 
L 414.72 41.472 
" style="fill: none; stroke: #cccccc; stroke-linejoin: miter; stroke-linecap: square"/>
   </g>
   <g id="text_13">
    <!-- Execution Time of MjStep and Naive FD (Over 5 Runs) -->
    <g style="fill: #262626" transform="translate(81.0531 35.472) scale(0.1152 -0.1152)">
     <defs>
      <path id="DejaVuSans-66" d="M 2375 4863 
L 2375 4384 
L 1825 4384 
Q 1516 4384 1395 4259 
Q 1275 4134 1275 3809 
L 1275 3500 
L 2222 3500 
L 2222 3053 
L 1275 3053 
L 1275 0 
L 697 0 
L 697 3053 
L 147 3053 
L 147 3500 
L 697 3500 
L 697 3744 
Q 697 4328 969 4595 
Q 1241 4863 1831 4863 
L 2375 4863 
z
" transform="scale(0.015625)"/>
      <path id="DejaVuSans-4d" d="M 628 4666 
L 1569 4666 
L 2759 1491 
L 3956 4666 
L 4897 4666 
L 4897 0 
L 4281 0 
L 4281 4097 
L 3078 897 
L 2444 897 
L 1241 4097 
L 1241 0 
L 628 0 
L 628 4666 
z
" transform="scale(0.015625)"/>
      <path id="DejaVuSans-6a" d="M 603 3500 
L 1178 3500 
L 1178 -63 
Q 1178 -731 923 -1031 
Q 669 -1331 103 -1331 
L -116 -1331 
L -116 -844 
L 38 -844 
Q 366 -844 484 -692 
Q 603 -541 603 -63 
L 603 3500 
z
M 603 4863 
L 1178 4863 
L 1178 4134 
L 603 4134 
L 603 4863 
z
" transform="scale(0.015625)"/>
      <path id="DejaVuSans-70" d="M 1159 525 
L 1159 -1331 
L 581 -1331 
L 581 3500 
L 1159 3500 
L 1159 2969 
Q 1341 3281 1617 3432 
Q 1894 3584 2278 3584 
Q 2916 3584 3314 3078 
Q 3713 2572 3713 1747 
Q 3713 922 3314 415 
Q 2916 -91 2278 -91 
Q 1894 -91 1617 61 
Q 1341 213 1159 525 
z
M 3116 1747 
Q 3116 2381 2855 2742 
Q 2594 3103 2138 3103 
Q 1681 3103 1420 2742 
Q 1159 2381 1159 1747 
Q 1159 1113 1420 752 
Q 1681 391 2138 391 
Q 2594 391 2855 752 
Q 3116 1113 3116 1747 
z
" transform="scale(0.015625)"/>
      <path id="DejaVuSans-64" d="M 2906 2969 
L 2906 4863 
L 3481 4863 
L 3481 0 
L 2906 0 
L 2906 525 
Q 2725 213 2448 61 
Q 2172 -91 1784 -91 
Q 1150 -91 751 415 
Q 353 922 353 1747 
Q 353 2572 751 3078 
Q 1150 3584 1784 3584 
Q 2172 3584 2448 3432 
Q 2725 3281 2906 2969 
z
M 947 1747 
Q 947 1113 1208 752 
Q 1469 391 1925 391 
Q 2381 391 2643 752 
Q 2906 1113 2906 1747 
Q 2906 2381 2643 2742 
Q 2381 3103 1925 3103 
Q 1469 3103 1208 2742 
Q 947 2381 947 1747 
z
" transform="scale(0.015625)"/>
      <path id="DejaVuSans-4e" d="M 628 4666 
L 1478 4666 
L 3547 763 
L 3547 4666 
L 4159 4666 
L 4159 0 
L 3309 0 
L 1241 3903 
L 1241 0 
L 628 0 
L 628 4666 
z
" transform="scale(0.015625)"/>
      <path id="DejaVuSans-76" d="M 191 3500 
L 800 3500 
L 1894 563 
L 2988 3500 
L 3597 3500 
L 2284 0 
L 1503 0 
L 191 3500 
z
" transform="scale(0.015625)"/>
      <path id="DejaVuSans-46" d="M 628 4666 
L 3309 4666 
L 3309 4134 
L 1259 4134 
L 1259 2759 
L 3109 2759 
L 3109 2228 
L 1259 2228 
L 1259 0 
L 628 0 
L 628 4666 
z
" transform="scale(0.015625)"/>
      <path id="DejaVuSans-44" d="M 1259 4147 
L 1259 519 
L 2022 519 
Q 2988 519 3436 956 
Q 3884 1394 3884 2338 
Q 3884 3275 3436 3711 
Q 2988 4147 2022 4147 
L 1259 4147 
z
M 628 4666 
L 1925 4666 
Q 3281 4666 3915 4102 
Q 4550 3538 4550 2338 
Q 4550 1131 3912 565 
Q 3275 0 1925 0 
L 628 0 
L 628 4666 
z
" transform="scale(0.015625)"/>
      <path id="DejaVuSans-4f" d="M 2522 4238 
Q 1834 4238 1429 3725 
Q 1025 3213 1025 2328 
Q 1025 1447 1429 934 
Q 1834 422 2522 422 
Q 3209 422 3611 934 
Q 4013 1447 4013 2328 
Q 4013 3213 3611 3725 
Q 3209 4238 2522 4238 
z
M 2522 4750 
Q 3503 4750 4090 4092 
Q 4678 3434 4678 2328 
Q 4678 1225 4090 567 
Q 3503 -91 2522 -91 
Q 1538 -91 948 565 
Q 359 1222 359 2328 
Q 359 3434 948 4092 
Q 1538 4750 2522 4750 
z
" transform="scale(0.015625)"/>
      <path id="DejaVuSans-72" d="M 2631 2963 
Q 2534 3019 2420 3045 
Q 2306 3072 2169 3072 
Q 1681 3072 1420 2755 
Q 1159 2438 1159 1844 
L 1159 0 
L 581 0 
L 581 3500 
L 1159 3500 
L 1159 2956 
Q 1341 3275 1631 3429 
Q 1922 3584 2338 3584 
Q 2397 3584 2469 3576 
Q 2541 3569 2628 3553 
L 2631 2963 
z
" transform="scale(0.015625)"/>
      <path id="DejaVuSans-52" d="M 2841 2188 
Q 3044 2119 3236 1894 
Q 3428 1669 3622 1275 
L 4263 0 
L 3584 0 
L 2988 1197 
Q 2756 1666 2539 1819 
Q 2322 1972 1947 1972 
L 1259 1972 
L 1259 0 
L 628 0 
L 628 4666 
L 2053 4666 
Q 2853 4666 3247 4331 
Q 3641 3997 3641 3322 
Q 3641 2881 3436 2590 
Q 3231 2300 2841 2188 
z
M 1259 4147 
L 1259 2491 
L 2053 2491 
Q 2509 2491 2742 2702 
Q 2975 2913 2975 3322 
Q 2975 3731 2742 3939 
Q 2509 4147 2053 4147 
L 1259 4147 
z
" transform="scale(0.015625)"/>
     </defs>
     <use xlink:href="#DejaVuSans-45"/>
     <use xlink:href="#DejaVuSans-78" transform="translate(63.183594 0)"/>
     <use xlink:href="#DejaVuSans-65" transform="translate(119.238281 0)"/>
     <use xlink:href="#DejaVuSans-63" transform="translate(180.761719 0)"/>
     <use xlink:href="#DejaVuSans-75" transform="translate(235.742188 0)"/>
     <use xlink:href="#DejaVuSans-74" transform="translate(299.121094 0)"/>
     <use xlink:href="#DejaVuSans-69" transform="translate(338.330078 0)"/>
     <use xlink:href="#DejaVuSans-6f" transform="translate(366.113281 0)"/>
     <use xlink:href="#DejaVuSans-6e" transform="translate(427.294922 0)"/>
     <use xlink:href="#DejaVuSans-20" transform="translate(490.673828 0)"/>
     <use xlink:href="#DejaVuSans-54" transform="translate(522.460938 0)"/>
     <use xlink:href="#DejaVuSans-69" transform="translate(580.419922 0)"/>
     <use xlink:href="#DejaVuSans-6d" transform="translate(608.203125 0)"/>
     <use xlink:href="#DejaVuSans-65" transform="translate(705.615234 0)"/>
     <use xlink:href="#DejaVuSans-20" transform="translate(767.138672 0)"/>
     <use xlink:href="#DejaVuSans-6f" transform="translate(798.925781 0)"/>
     <use xlink:href="#DejaVuSans-66" transform="translate(860.107422 0)"/>
     <use xlink:href="#DejaVuSans-20" transform="translate(895.3125 0)"/>
     <use xlink:href="#DejaVuSans-4d" transform="translate(927.099609 0)"/>
     <use xlink:href="#DejaVuSans-6a" transform="translate(1013.378906 0)"/>
     <use xlink:href="#DejaVuSans-53" transform="translate(1041.162109 0)"/>
     <use xlink:href="#DejaVuSans-74" transform="translate(1104.638672 0)"/>
     <use xlink:href="#DejaVuSans-65" transform="translate(1143.847656 0)"/>
     <use xlink:href="#DejaVuSans-70" transform="translate(1205.371094 0)"/>
     <use xlink:href="#DejaVuSans-20" transform="translate(1268.847656 0)"/>
     <use xlink:href="#DejaVuSans-61" transform="translate(1300.634766 0)"/>
     <use xlink:href="#DejaVuSans-6e" transform="translate(1361.914062 0)"/>
     <use xlink:href="#DejaVuSans-64" transform="translate(1425.292969 0)"/>
     <use xlink:href="#DejaVuSans-20" transform="translate(1488.769531 0)"/>
     <use xlink:href="#DejaVuSans-4e" transform="translate(1520.556641 0)"/>
     <use xlink:href="#DejaVuSans-61" transform="translate(1595.361328 0)"/>
     <use xlink:href="#DejaVuSans-69" transform="translate(1656.640625 0)"/>
     <use xlink:href="#DejaVuSans-76" transform="translate(1684.423828 0)"/>
     <use xlink:href="#DejaVuSans-65" transform="translate(1743.603516 0)"/>
     <use xlink:href="#DejaVuSans-20" transform="translate(1805.126953 0)"/>
     <use xlink:href="#DejaVuSans-46" transform="translate(1836.914062 0)"/>
     <use xlink:href="#DejaVuSans-44" transform="translate(1894.433594 0)"/>
     <use xlink:href="#DejaVuSans-20" transform="translate(1971.435547 0)"/>
     <use xlink:href="#DejaVuSans-28" transform="translate(2003.222656 0)"/>
     <use xlink:href="#DejaVuSans-4f" transform="translate(2042.236328 0)"/>
     <use xlink:href="#DejaVuSans-76" transform="translate(2120.947266 0)"/>
     <use xlink:href="#DejaVuSans-65" transform="translate(2180.126953 0)"/>
     <use xlink:href="#DejaVuSans-72" transform="translate(2241.650391 0)"/>
     <use xlink:href="#DejaVuSans-20" transform="translate(2282.763672 0)"/>
     <use xlink:href="#DejaVuSans-35" transform="translate(2314.550781 0)"/>
     <use xlink:href="#DejaVuSans-20" transform="translate(2378.173828 0)"/>
     <use xlink:href="#DejaVuSans-52" transform="translate(2409.960938 0)"/>
     <use xlink:href="#DejaVuSans-75" transform="translate(2474.943359 0)"/>
     <use xlink:href="#DejaVuSans-6e" transform="translate(2538.322266 0)"/>
     <use xlink:href="#DejaVuSans-73" transform="translate(2601.701172 0)"/>
     <use xlink:href="#DejaVuSans-29" transform="translate(2653.800781 0)"/>
    </g>
   </g>
   <g id="legend_1">
    <g id="patch_7">
     <path d="M 148.1391 111.9204 
L 324.1809 111.9204 
Q 326.2929 111.9204 326.2929 109.8084 
L 326.2929 48.864 
Q 326.2929 46.752 324.1809 46.752 
L 148.1391 46.752 
Q 146.0271 46.752 146.0271 48.864 
L 146.0271 109.8084 
Q 146.0271 111.9204 148.1391 111.9204 
z
" style="fill: #ffffff; opacity: 0.8; stroke: #cccccc; stroke-width: 0.8; stroke-linejoin: miter"/>
    </g>
    <g id="line2d_24">
     <path d="M 150.2511 55.30395 
L 160.8111 55.30395 
L 171.3711 55.30395 
" style="fill: none"/>
    </g>
    <g id="text_14">
     <!-- method -->
     <g style="fill: #262626" transform="translate(179.8191 58.99995) scale(0.1056 -0.1056)">
      <use xlink:href="#DejaVuSans-6d"/>
      <use xlink:href="#DejaVuSans-65" transform="translate(97.412109 0)"/>
      <use xlink:href="#DejaVuSans-74" transform="translate(158.935547 0)"/>
      <use xlink:href="#DejaVuSans-68" transform="translate(198.144531 0)"/>
      <use xlink:href="#DejaVuSans-6f" transform="translate(261.523438 0)"/>
      <use xlink:href="#DejaVuSans-64" transform="translate(322.705078 0)"/>
     </g>
    </g>
    <g id="line2d_25">
     <path d="M 150.2511 70.80405 
L 160.8111 70.80405 
L 171.3711 70.80405 
" style="fill: none; stroke: #4c72b0; stroke-width: 1.2; stroke-linecap: round"/>
    </g>
    <g id="text_15">
     <!-- pyMjStep -->
     <g style="fill: #262626" transform="translate(179.8191 74.50005) scale(0.1056 -0.1056)">
      <defs>
       <path id="DejaVuSans-79" d="M 2059 -325 
Q 1816 -950 1584 -1140 
Q 1353 -1331 966 -1331 
L 506 -1331 
L 506 -850 
L 844 -850 
Q 1081 -850 1212 -737 
Q 1344 -625 1503 -206 
L 1606 56 
L 191 3500 
L 800 3500 
L 1894 763 
L 2988 3500 
L 3597 3500 
L 2059 -325 
z
" transform="scale(0.015625)"/>
      </defs>
      <use xlink:href="#DejaVuSans-70"/>
      <use xlink:href="#DejaVuSans-79" transform="translate(63.476562 0)"/>
      <use xlink:href="#DejaVuSans-4d" transform="translate(122.65625 0)"/>
      <use xlink:href="#DejaVuSans-6a" transform="translate(208.935547 0)"/>
      <use xlink:href="#DejaVuSans-53" transform="translate(236.71875 0)"/>
      <use xlink:href="#DejaVuSans-74" transform="translate(300.195312 0)"/>
      <use xlink:href="#DejaVuSans-65" transform="translate(339.404297 0)"/>
      <use xlink:href="#DejaVuSans-70" transform="translate(400.927734 0)"/>
     </g>
    </g>
    <g id="line2d_26">
     <path d="M 150.2511 86.30415 
L 160.8111 86.30415 
L 171.3711 86.30415 
" style="fill: none; stroke: #dd8452; stroke-width: 1.2; stroke-linecap: round"/>
    </g>
    <g id="text_16">
     <!-- CppMjStep -->
     <g style="fill: #262626" transform="translate(179.8191 90.00015) scale(0.1056 -0.1056)">
      <defs>
       <path id="DejaVuSans-43" d="M 4122 4306 
L 4122 3641 
Q 3803 3938 3442 4084 
Q 3081 4231 2675 4231 
Q 1875 4231 1450 3742 
Q 1025 3253 1025 2328 
Q 1025 1406 1450 917 
Q 1875 428 2675 428 
Q 3081 428 3442 575 
Q 3803 722 4122 1019 
L 4122 359 
Q 3791 134 3420 21 
Q 3050 -91 2638 -91 
Q 1578 -91 968 557 
Q 359 1206 359 2328 
Q 359 3453 968 4101 
Q 1578 4750 2638 4750 
Q 3056 4750 3426 4639 
Q 3797 4528 4122 4306 
z
" transform="scale(0.015625)"/>
      </defs>
      <use xlink:href="#DejaVuSans-43"/>
      <use xlink:href="#DejaVuSans-70" transform="translate(69.824219 0)"/>
      <use xlink:href="#DejaVuSans-70" transform="translate(133.300781 0)"/>
      <use xlink:href="#DejaVuSans-4d" transform="translate(196.777344 0)"/>
      <use xlink:href="#DejaVuSans-6a" transform="translate(283.056641 0)"/>
      <use xlink:href="#DejaVuSans-53" transform="translate(310.839844 0)"/>
      <use xlink:href="#DejaVuSans-74" transform="translate(374.316406 0)"/>
      <use xlink:href="#DejaVuSans-65" transform="translate(413.525391 0)"/>
      <use xlink:href="#DejaVuSans-70" transform="translate(475.048828 0)"/>
     </g>
    </g>
    <g id="line2d_27">
     <path d="M 150.2511 101.80425 
L 160.8111 101.80425 
L 171.3711 101.80425 
" style="fill: none; stroke: #55a868; stroke-width: 1.2; stroke-linecap: round"/>
    </g>
    <g id="text_17">
     <!-- Naive FD -->
     <g style="fill: #262626" transform="translate(179.8191 105.50025) scale(0.1056 -0.1056)">
      <use xlink:href="#DejaVuSans-4e"/>
      <use xlink:href="#DejaVuSans-61" transform="translate(74.804688 0)"/>
      <use xlink:href="#DejaVuSans-69" transform="translate(136.083984 0)"/>
      <use xlink:href="#DejaVuSans-76" transform="translate(163.867188 0)"/>
      <use xlink:href="#DejaVuSans-65" transform="translate(223.046875 0)"/>
      <use xlink:href="#DejaVuSans-20" transform="translate(284.570312 0)"/>
      <use xlink:href="#DejaVuSans-46" transform="translate(316.357422 0)"/>
      <use xlink:href="#DejaVuSans-44" transform="translate(373.876953 0)"/>
     </g>
    </g>
    <g id="line2d_28">
     <path d="M 257.8113 55.30395 
L 268.3713 55.30395 
L 278.9313 55.30395 
" style="fill: none"/>
    </g>
    <g id="text_18">
     <!-- device -->
     <g style="fill: #262626" transform="translate(287.3793 58.99995) scale(0.1056 -0.1056)">
      <use xlink:href="#DejaVuSans-64"/>
      <use xlink:href="#DejaVuSans-65" transform="translate(63.476562 0)"/>
      <use xlink:href="#DejaVuSans-76" transform="translate(125 0)"/>
      <use xlink:href="#DejaVuSans-69" transform="translate(184.179688 0)"/>
      <use xlink:href="#DejaVuSans-63" transform="translate(211.962891 0)"/>
      <use xlink:href="#DejaVuSans-65" transform="translate(266.943359 0)"/>
     </g>
    </g>
    <g id="line2d_29">
     <path d="M 257.8113 70.80405 
L 268.3713 70.80405 
L 278.9313 70.80405 
" style="fill: none; stroke: #333333; stroke-width: 1.2; stroke-linecap: round"/>
    </g>
    <g id="text_19">
     <!-- cpu -->
     <g style="fill: #262626" transform="translate(287.3793 74.50005) scale(0.1056 -0.1056)">
      <use xlink:href="#DejaVuSans-63"/>
      <use xlink:href="#DejaVuSans-70" transform="translate(54.980469 0)"/>
      <use xlink:href="#DejaVuSans-75" transform="translate(118.457031 0)"/>
     </g>
    </g>
    <g id="line2d_30">
     <path d="M 257.8113 86.30415 
L 268.3713 86.30415 
L 278.9313 86.30415 
" style="fill: none; stroke-dasharray: 4.8,1.8; stroke-dashoffset: 0; stroke: #333333; stroke-width: 1.2"/>
    </g>
    <g id="text_20">
     <!-- cuda -->
     <g style="fill: #262626" transform="translate(287.3793 90.00015) scale(0.1056 -0.1056)">
      <use xlink:href="#DejaVuSans-63"/>
      <use xlink:href="#DejaVuSans-75" transform="translate(54.980469 0)"/>
      <use xlink:href="#DejaVuSans-64" transform="translate(118.359375 0)"/>
      <use xlink:href="#DejaVuSans-61" transform="translate(181.835938 0)"/>
     </g>
    </g>
   </g>
  </g>
 </g>
 <defs>
  <clipPath id="p55c94b35c6">
   <rect x="57.6" y="41.472" width="357.12" height="266.112"/>
  </clipPath>
 </defs>
</svg>
